M48
; DRILL file {KiCad (5.1.2)-2} date 2019/07/07 18:05:46
; FORMAT={3:3/ absolute / metric / suppress leading zeros}
; #@! TF.CreationDate,2019-07-07T18:05:46+09:00
; #@! TF.GenerationSoftware,Kicad,Pcbnew,(5.1.2)-2
FMAT,2
METRIC,TZ
T1C0.400
T2C0.950
T3C1.016
T4C1.650
%
G90
G05
T1
X78740Y-78740
X78740Y-81280
X78740Y-85217
X78740Y-87503
X78740Y-90170
X80010Y-69850
X80010Y-74930
X81280Y-67310
X81280Y-72390
X81280Y-78740
X82042Y-93853
X82042Y-96139
X82550Y-69850
X82550Y-74930
X82804Y-80010
X82804Y-85217
X83820Y-67310
X83820Y-72390
X84074Y-92710
X84201Y-88011
X84267Y-79944
X85090Y-69850
X86360Y-67310
X86360Y-72390
X88138Y-75565
X90106Y-88837
X90170Y-66040
X90170Y-71120
X91137Y-95250
X91186Y-82674
X91440Y-68580
X91440Y-73660
X92583Y-71120
X92710Y-66040
X92710Y-76200
X92710Y-88900
X93980Y-68580
X93980Y-73660
X93980Y-86360
X95250Y-66040
X95250Y-71120
X95250Y-76200
X95250Y-88900
X96520Y-68580
X96520Y-73660
X96520Y-86360
X97239Y-93218
X97790Y-66040
X97790Y-71120
X97790Y-76200
X97917Y-78743
X97917Y-84709
X99060Y-68580
X99060Y-73660
X99060Y-86360
X100330Y-66040
X100330Y-71120
X101600Y-68580
X101600Y-73660
X101600Y-86360
X101600Y-97790
X102870Y-66040
X102870Y-71120
X102870Y-76200
X102870Y-88900
X104140Y-68580
X104140Y-73660
X105410Y-66040
X105410Y-71120
X105410Y-76200
X105410Y-88900
X105410Y-96520
X106299Y-78359
X106426Y-91059
X106680Y-68580
X106680Y-73660
X106680Y-86360
X107823Y-88900
X107950Y-66040
X107950Y-71120
X107950Y-76200
X109220Y-68580
X109220Y-73660
X109220Y-86360
X109220Y-91440
X109220Y-96520
X110490Y-66040
X110490Y-88900
X110490Y-93980
X111760Y-69977
X111760Y-72390
X111760Y-77470
X111760Y-82550
X111760Y-86360
X111760Y-91440
X111760Y-96520
X113030Y-66040
X113030Y-68580
X113030Y-80010
X113030Y-88900
X113030Y-93980
X114300Y-82550
X114300Y-86360
X114300Y-91440
X114300Y-96520
X115570Y-66040
X115570Y-68580
X115570Y-88900
X118110Y-66040
X118110Y-68580
X118999Y-78867
X120650Y-66040
X120650Y-68580
X123190Y-66040
X123190Y-68580
X124968Y-94361
X125460Y-89535
X125730Y-66040
X125730Y-69723
X125730Y-72390
X125730Y-76200
X125730Y-91567
X127000Y-85090
X127000Y-87630
X128270Y-66040
X128270Y-69850
X128270Y-72390
X128270Y-89916
X128270Y-92837
X128270Y-95250
X128270Y-97790
X128397Y-81153
X129540Y-85090
X130810Y-66040
X130810Y-68580
X130810Y-71120
T2
X131191Y-76073
X131191Y-78613
X131191Y-81153
X131191Y-88265
X131191Y-90805
X131191Y-93345
T3
X73660Y-83820
X73660Y-86360
X73660Y-88900
X73660Y-91440
X73660Y-93980
X73660Y-96520
X76200Y-83820
X76200Y-86360
X76200Y-88900
X76200Y-91440
X76200Y-93980
X76200Y-96520
T4
X118999Y-71247
X118999Y-75207
T0
M30
