G04 #@! TF.GenerationSoftware,KiCad,Pcbnew,(5.1.2)-2*
G04 #@! TF.CreationDate,2019-07-07T18:05:40+09:00*
G04 #@! TF.ProjectId,PmodICSIF,506d6f64-4943-4534-9946-2e6b69636164,rev?*
G04 #@! TF.SameCoordinates,Original*
G04 #@! TF.FileFunction,Copper,L2,Bot*
G04 #@! TF.FilePolarity,Positive*
%FSLAX46Y46*%
G04 Gerber Fmt 4.6, Leading zero omitted, Abs format (unit mm)*
G04 Created by KiCad (PCBNEW (5.1.2)-2) date 2019-07-07 18:05:40*
%MOMM*%
%LPD*%
G04 APERTURE LIST*
%ADD10R,2.000000X1.600000*%
%ADD11O,3.000000X2.350000*%
%ADD12R,3.000000X2.350000*%
%ADD13R,2.000000X2.000000*%
%ADD14C,2.000000*%
%ADD15R,1.524000X1.524000*%
%ADD16C,1.524000*%
%ADD17C,0.800000*%
%ADD18C,0.500000*%
%ADD19C,0.250000*%
%ADD20C,0.254000*%
G04 APERTURE END LIST*
D10*
X83757000Y-90805000D03*
X87757000Y-90805000D03*
X88201000Y-77978000D03*
X84201000Y-77978000D03*
X91123000Y-93472000D03*
X95123000Y-93472000D03*
X95186000Y-80899000D03*
X91186000Y-80899000D03*
X86170000Y-97917000D03*
X90170000Y-97917000D03*
X90106000Y-85598000D03*
X86106000Y-85598000D03*
D11*
X118999000Y-75207000D03*
D12*
X118999000Y-71247000D03*
D13*
X131191000Y-88265000D03*
D14*
X131191000Y-90805000D03*
X131191000Y-93345000D03*
X131191000Y-81153000D03*
X131191000Y-78613000D03*
D13*
X131191000Y-76073000D03*
D15*
X76200000Y-83820000D03*
D16*
X73660000Y-83820000D03*
X76200000Y-86360000D03*
X73660000Y-86360000D03*
X76200000Y-88900000D03*
X73660000Y-88900000D03*
X76200000Y-91440000D03*
X73660000Y-91440000D03*
X76200000Y-93980000D03*
X73660000Y-93980000D03*
X76200000Y-96520000D03*
X73660000Y-96520000D03*
D17*
X88138000Y-75565000D03*
X125460000Y-89535000D03*
X97239000Y-93218000D03*
X97917000Y-78743000D03*
X97917000Y-84709000D03*
X82804000Y-85217000D03*
X82804000Y-80010000D03*
X78740000Y-87503000D03*
X82042000Y-93853000D03*
X78740000Y-90170000D03*
X82042000Y-96139000D03*
X91186000Y-82674000D03*
X84267000Y-79944000D03*
X84074000Y-92710000D03*
X91137000Y-95250000D03*
X106299000Y-78359000D03*
X106426000Y-91059000D03*
X124968000Y-94361000D03*
X128397000Y-81153000D03*
X118999000Y-78867000D03*
X90170000Y-66040000D03*
X92710000Y-66040000D03*
X95250000Y-66040000D03*
X97790000Y-66040000D03*
X100330000Y-66040000D03*
X102870000Y-66040000D03*
X105410000Y-66040000D03*
X107950000Y-66040000D03*
X110490000Y-66040000D03*
X113030000Y-68580000D03*
X115570000Y-68580000D03*
X118110000Y-68580000D03*
X120650000Y-68580000D03*
X123190000Y-68580000D03*
X125730000Y-69723000D03*
X111760000Y-69977000D03*
X111760000Y-72390000D03*
X125730000Y-72390000D03*
X128270000Y-89916000D03*
X127000000Y-87630000D03*
X125730000Y-91567000D03*
X113030000Y-66040000D03*
X115570000Y-66040000D03*
X118110000Y-66040000D03*
X120650000Y-66040000D03*
X123190000Y-66040000D03*
X125730000Y-66040000D03*
X128270000Y-66040000D03*
X130810000Y-66040000D03*
X91440000Y-68580000D03*
X93980000Y-68580000D03*
X96520000Y-68580000D03*
X99060000Y-68580000D03*
X101600000Y-68580000D03*
X104140000Y-68580000D03*
X106680000Y-68580000D03*
X109220000Y-68580000D03*
X92583000Y-71120000D03*
X95250000Y-71120000D03*
X97790000Y-71120000D03*
X100330000Y-71120000D03*
X102870000Y-71120000D03*
X105410000Y-71120000D03*
X107950000Y-71120000D03*
X90170000Y-71120000D03*
X91440000Y-73660000D03*
X93980000Y-73660000D03*
X96520000Y-73660000D03*
X99060000Y-73660000D03*
X101600000Y-73660000D03*
X104140000Y-73660000D03*
X106680000Y-73660000D03*
X109220000Y-73660000D03*
X92710000Y-76200000D03*
X95250000Y-76200000D03*
X97790000Y-76200000D03*
X102870000Y-76200000D03*
X105410000Y-76200000D03*
X107950000Y-76200000D03*
X86360000Y-67310000D03*
X83820000Y-67310000D03*
X81280000Y-67310000D03*
X80010000Y-69850000D03*
X82550000Y-69850000D03*
X85090000Y-69850000D03*
X86360000Y-72390000D03*
X83820000Y-72390000D03*
X81280000Y-72390000D03*
X80010000Y-74930000D03*
X82550000Y-74930000D03*
X111760000Y-77470000D03*
X113030000Y-80010000D03*
X111760000Y-82550000D03*
X114300000Y-82550000D03*
X114300000Y-86360000D03*
X111760000Y-86360000D03*
X109220000Y-86360000D03*
X106680000Y-86360000D03*
X101600000Y-86360000D03*
X99060000Y-86360000D03*
X96520000Y-86360000D03*
X93980000Y-86360000D03*
X92710000Y-88900000D03*
X95250000Y-88900000D03*
X102870000Y-88900000D03*
X105410000Y-88900000D03*
X107823000Y-88900000D03*
X110490000Y-88900000D03*
X113030000Y-88900000D03*
X115570000Y-88900000D03*
X114300000Y-91440000D03*
X111760000Y-91440000D03*
X109220000Y-91440000D03*
X81280000Y-78740000D03*
X78740000Y-78740000D03*
X78740000Y-81280000D03*
X130810000Y-68580000D03*
X130810000Y-71120000D03*
X128270000Y-72390000D03*
X128270000Y-69850000D03*
X125730000Y-76200000D03*
X127000000Y-85090000D03*
X129540000Y-85090000D03*
X109220000Y-96520000D03*
X111760000Y-96520000D03*
X114300000Y-96520000D03*
X113030000Y-93980000D03*
X110490000Y-93980000D03*
X128270000Y-92837000D03*
X128270000Y-95250000D03*
X128270000Y-97790000D03*
X105410000Y-96520000D03*
X101600000Y-97790000D03*
X78740000Y-85217000D03*
X90106000Y-88837000D03*
X84201000Y-88011000D03*
D18*
X76200000Y-96520000D02*
X77597000Y-97917000D01*
X87757000Y-92105000D02*
X87757000Y-90805000D01*
X87757000Y-96530000D02*
X87757000Y-92105000D01*
X86370000Y-97917000D02*
X87757000Y-96530000D01*
X86170000Y-97917000D02*
X86370000Y-97917000D01*
X86106000Y-87854000D02*
X86106000Y-85598000D01*
X87757000Y-90805000D02*
X87757000Y-89505000D01*
X87757000Y-89505000D02*
X86106000Y-87854000D01*
X86106000Y-84298000D02*
X88138000Y-82266000D01*
X86106000Y-85598000D02*
X86106000Y-84298000D01*
X88138000Y-82266000D02*
X88168000Y-82266000D01*
X88201000Y-82233000D02*
X88201000Y-77978000D01*
X88168000Y-82266000D02*
X88201000Y-82233000D01*
X88201000Y-76678000D02*
X88138000Y-76615000D01*
X88201000Y-77978000D02*
X88201000Y-76678000D01*
X88138000Y-76615000D02*
X88138000Y-75565000D01*
X75057000Y-97917000D02*
X77978000Y-97917000D01*
X73660000Y-96520000D02*
X75057000Y-97917000D01*
X77597000Y-97917000D02*
X77978000Y-97917000D01*
X77978000Y-97917000D02*
X86170000Y-97917000D01*
X126730000Y-90805000D02*
X125460000Y-89535000D01*
X131191000Y-90805000D02*
X126730000Y-90805000D01*
X96985000Y-93472000D02*
X97239000Y-93218000D01*
X95123000Y-93472000D02*
X96985000Y-93472000D01*
X97829000Y-82042000D02*
X97917000Y-82042000D01*
X96686000Y-80899000D02*
X97829000Y-82042000D01*
X95186000Y-80899000D02*
X96686000Y-80899000D01*
X97917000Y-78743000D02*
X97917000Y-82042000D01*
X97917000Y-82042000D02*
X97917000Y-84709000D01*
D19*
X82804000Y-85217000D02*
X82804000Y-80010000D01*
X81280000Y-90043000D02*
X79057500Y-87820500D01*
X81280000Y-93091000D02*
X81280000Y-90043000D01*
X82042000Y-93853000D02*
X81280000Y-93091000D01*
X78740000Y-87503000D02*
X79057500Y-87820500D01*
X79057500Y-87820500D02*
X79139999Y-87902999D01*
X78740000Y-90170000D02*
X79139999Y-90569999D01*
X79139999Y-90569999D02*
X80010000Y-91440000D01*
X80010000Y-91440000D02*
X80010000Y-94107000D01*
X80010000Y-94107000D02*
X82042000Y-96139000D01*
D18*
X84201000Y-90361000D02*
X83757000Y-90805000D01*
X84201000Y-77978000D02*
X84201000Y-88011000D01*
X91186000Y-84518000D02*
X90106000Y-85598000D01*
X91186000Y-80899000D02*
X91186000Y-84518000D01*
X90106000Y-92455000D02*
X91123000Y-93472000D01*
X90106000Y-85598000D02*
X90106000Y-88837000D01*
X91123000Y-96964000D02*
X90170000Y-97917000D01*
X91123000Y-93472000D02*
X91123000Y-96964000D01*
X71247000Y-77978000D02*
X84201000Y-77978000D01*
X73660000Y-93980000D02*
X71247000Y-93980000D01*
X71247000Y-93980000D02*
X71247000Y-77978000D01*
X76200000Y-93980000D02*
X73660000Y-93980000D01*
X84201000Y-77978000D02*
X84201000Y-73660000D01*
X84201000Y-73660000D02*
X91059000Y-73660000D01*
X91186000Y-73787000D02*
X91186000Y-80899000D01*
X91059000Y-73660000D02*
X91186000Y-73787000D01*
X84074000Y-91122000D02*
X83757000Y-90805000D01*
X84074000Y-92710000D02*
X84074000Y-91122000D01*
X90170000Y-99217000D02*
X90170000Y-97917000D01*
X90019999Y-99367001D02*
X90170000Y-99217000D01*
X71427001Y-99367001D02*
X90019999Y-99367001D01*
X71247000Y-99187000D02*
X71427001Y-99367001D01*
X71247000Y-93980000D02*
X71247000Y-99187000D01*
X104193001Y-99367001D02*
X104373002Y-99187000D01*
X131191000Y-93345000D02*
X131191000Y-98933000D01*
X104627002Y-98933000D02*
X104193001Y-99367001D01*
X104267000Y-78359000D02*
X103705999Y-78920001D01*
X106299000Y-78359000D02*
X104267000Y-78359000D01*
X90019999Y-99367001D02*
X103705999Y-99367001D01*
X103705999Y-99367001D02*
X104193001Y-99367001D01*
X103759000Y-91059000D02*
X103705999Y-91005999D01*
X106426000Y-91059000D02*
X103759000Y-91059000D01*
X103705999Y-78920001D02*
X103705999Y-91005999D01*
X103705999Y-91005999D02*
X103705999Y-99367001D01*
X125095000Y-95053685D02*
X125095000Y-98933000D01*
X124968000Y-94926685D02*
X125095000Y-95053685D01*
X124968000Y-94361000D02*
X124968000Y-94926685D01*
X131191000Y-98933000D02*
X125095000Y-98933000D01*
X125095000Y-98933000D02*
X104627002Y-98933000D01*
X131191000Y-81153000D02*
X128397000Y-81153000D01*
X126111000Y-78867000D02*
X118999000Y-78867000D01*
X128397000Y-81153000D02*
X126111000Y-78867000D01*
X90106000Y-88837000D02*
X90106000Y-92455000D01*
X84201000Y-88011000D02*
X84201000Y-90361000D01*
D20*
G36*
X133477000Y-99187000D02*
G01*
X91598259Y-99187000D01*
X91621185Y-99168185D01*
X91700537Y-99071494D01*
X91759502Y-98961180D01*
X91795812Y-98841482D01*
X91808072Y-98717000D01*
X91805000Y-98202750D01*
X91646250Y-98044000D01*
X90297000Y-98044000D01*
X90297000Y-98064000D01*
X90043000Y-98064000D01*
X90043000Y-98044000D01*
X88693750Y-98044000D01*
X88535000Y-98202750D01*
X88531928Y-98717000D01*
X88544188Y-98841482D01*
X88580498Y-98961180D01*
X88639463Y-99071494D01*
X88718815Y-99168185D01*
X88741741Y-99187000D01*
X87598259Y-99187000D01*
X87621185Y-99168185D01*
X87700537Y-99071494D01*
X87759502Y-98961180D01*
X87795812Y-98841482D01*
X87808072Y-98717000D01*
X87808072Y-97730507D01*
X88352050Y-97186529D01*
X88385817Y-97158817D01*
X88420136Y-97117000D01*
X88531928Y-97117000D01*
X88535000Y-97631250D01*
X88693750Y-97790000D01*
X90043000Y-97790000D01*
X90043000Y-96640750D01*
X90297000Y-96640750D01*
X90297000Y-97790000D01*
X91646250Y-97790000D01*
X91805000Y-97631250D01*
X91808072Y-97117000D01*
X91795812Y-96992518D01*
X91759502Y-96872820D01*
X91700537Y-96762506D01*
X91621185Y-96665815D01*
X91524494Y-96586463D01*
X91414180Y-96527498D01*
X91294482Y-96491188D01*
X91170000Y-96478928D01*
X90455750Y-96482000D01*
X90297000Y-96640750D01*
X90043000Y-96640750D01*
X89884250Y-96482000D01*
X89170000Y-96478928D01*
X89045518Y-96491188D01*
X88925820Y-96527498D01*
X88815506Y-96586463D01*
X88718815Y-96665815D01*
X88639463Y-96762506D01*
X88580498Y-96872820D01*
X88544188Y-96992518D01*
X88531928Y-97117000D01*
X88420136Y-97117000D01*
X88421740Y-97115046D01*
X88496410Y-97024060D01*
X88496411Y-97024059D01*
X88578589Y-96870313D01*
X88629195Y-96703490D01*
X88642000Y-96573477D01*
X88642000Y-96573467D01*
X88646281Y-96530001D01*
X88642000Y-96486535D01*
X88642000Y-94272000D01*
X89484928Y-94272000D01*
X89497188Y-94396482D01*
X89533498Y-94516180D01*
X89592463Y-94626494D01*
X89671815Y-94723185D01*
X89768506Y-94802537D01*
X89878820Y-94861502D01*
X89998518Y-94897812D01*
X90123000Y-94910072D01*
X90837250Y-94907000D01*
X90996000Y-94748250D01*
X90996000Y-93599000D01*
X91250000Y-93599000D01*
X91250000Y-94748250D01*
X91408750Y-94907000D01*
X92123000Y-94910072D01*
X92247482Y-94897812D01*
X92367180Y-94861502D01*
X92477494Y-94802537D01*
X92574185Y-94723185D01*
X92653537Y-94626494D01*
X92712502Y-94516180D01*
X92748812Y-94396482D01*
X92761072Y-94272000D01*
X92758000Y-93757750D01*
X92599250Y-93599000D01*
X91250000Y-93599000D01*
X90996000Y-93599000D01*
X89646750Y-93599000D01*
X89488000Y-93757750D01*
X89484928Y-94272000D01*
X88642000Y-94272000D01*
X88642000Y-92672000D01*
X89484928Y-92672000D01*
X89488000Y-93186250D01*
X89646750Y-93345000D01*
X90996000Y-93345000D01*
X90996000Y-92195750D01*
X91250000Y-92195750D01*
X91250000Y-93345000D01*
X92599250Y-93345000D01*
X92758000Y-93186250D01*
X92761072Y-92672000D01*
X93484928Y-92672000D01*
X93484928Y-94272000D01*
X93497188Y-94396482D01*
X93533498Y-94516180D01*
X93592463Y-94626494D01*
X93671815Y-94723185D01*
X93768506Y-94802537D01*
X93878820Y-94861502D01*
X93998518Y-94897812D01*
X94123000Y-94910072D01*
X96123000Y-94910072D01*
X96247482Y-94897812D01*
X96367180Y-94861502D01*
X96477494Y-94802537D01*
X96574185Y-94723185D01*
X96653537Y-94626494D01*
X96712502Y-94516180D01*
X96723351Y-94480413D01*
X130235192Y-94480413D01*
X130330956Y-94744814D01*
X130620571Y-94885704D01*
X130932108Y-94967384D01*
X131253595Y-94986718D01*
X131572675Y-94942961D01*
X131877088Y-94837795D01*
X132051044Y-94744814D01*
X132146808Y-94480413D01*
X131191000Y-93524605D01*
X130235192Y-94480413D01*
X96723351Y-94480413D01*
X96748812Y-94396482D01*
X96752701Y-94357000D01*
X96941531Y-94357000D01*
X96985000Y-94361281D01*
X97028469Y-94357000D01*
X97028477Y-94357000D01*
X97158490Y-94344195D01*
X97325313Y-94293589D01*
X97436998Y-94233893D01*
X97540898Y-94213226D01*
X97729256Y-94135205D01*
X97898774Y-94021937D01*
X98042937Y-93877774D01*
X98156205Y-93708256D01*
X98234226Y-93519898D01*
X98256564Y-93407595D01*
X129549282Y-93407595D01*
X129593039Y-93726675D01*
X129698205Y-94031088D01*
X129791186Y-94205044D01*
X130055587Y-94300808D01*
X131011395Y-93345000D01*
X131370605Y-93345000D01*
X132326413Y-94300808D01*
X132590814Y-94205044D01*
X132731704Y-93915429D01*
X132813384Y-93603892D01*
X132832718Y-93282405D01*
X132788961Y-92963325D01*
X132683795Y-92658912D01*
X132590814Y-92484956D01*
X132326413Y-92389192D01*
X131370605Y-93345000D01*
X131011395Y-93345000D01*
X130055587Y-92389192D01*
X129791186Y-92484956D01*
X129650296Y-92774571D01*
X129568616Y-93086108D01*
X129549282Y-93407595D01*
X98256564Y-93407595D01*
X98274000Y-93319939D01*
X98274000Y-93116061D01*
X98234226Y-92916102D01*
X98156205Y-92727744D01*
X98042937Y-92558226D01*
X97898774Y-92414063D01*
X97729256Y-92300795D01*
X97540898Y-92222774D01*
X97340939Y-92183000D01*
X97137061Y-92183000D01*
X96937102Y-92222774D01*
X96748744Y-92300795D01*
X96672010Y-92352067D01*
X96653537Y-92317506D01*
X96574185Y-92220815D01*
X96477494Y-92141463D01*
X96367180Y-92082498D01*
X96247482Y-92046188D01*
X96123000Y-92033928D01*
X94123000Y-92033928D01*
X93998518Y-92046188D01*
X93878820Y-92082498D01*
X93768506Y-92141463D01*
X93671815Y-92220815D01*
X93592463Y-92317506D01*
X93533498Y-92427820D01*
X93497188Y-92547518D01*
X93484928Y-92672000D01*
X92761072Y-92672000D01*
X92748812Y-92547518D01*
X92712502Y-92427820D01*
X92653537Y-92317506D01*
X92574185Y-92220815D01*
X92477494Y-92141463D01*
X92367180Y-92082498D01*
X92247482Y-92046188D01*
X92123000Y-92033928D01*
X91408750Y-92037000D01*
X91250000Y-92195750D01*
X90996000Y-92195750D01*
X90837250Y-92037000D01*
X90123000Y-92033928D01*
X89998518Y-92046188D01*
X89878820Y-92082498D01*
X89768506Y-92141463D01*
X89671815Y-92220815D01*
X89592463Y-92317506D01*
X89533498Y-92427820D01*
X89497188Y-92547518D01*
X89484928Y-92672000D01*
X88642000Y-92672000D01*
X88642000Y-92243072D01*
X88757000Y-92243072D01*
X88881482Y-92230812D01*
X89001180Y-92194502D01*
X89111494Y-92135537D01*
X89208185Y-92056185D01*
X89287537Y-91959494D01*
X89346502Y-91849180D01*
X89382812Y-91729482D01*
X89395072Y-91605000D01*
X89395072Y-90005000D01*
X89382812Y-89880518D01*
X89346502Y-89760820D01*
X89287537Y-89650506D01*
X89208185Y-89553815D01*
X89111494Y-89474463D01*
X89034038Y-89433061D01*
X124425000Y-89433061D01*
X124425000Y-89636939D01*
X124464774Y-89836898D01*
X124542795Y-90025256D01*
X124656063Y-90194774D01*
X124800226Y-90338937D01*
X124969744Y-90452205D01*
X125158102Y-90530226D01*
X125214957Y-90541535D01*
X126073470Y-91400049D01*
X126101183Y-91433817D01*
X126134951Y-91461530D01*
X126134953Y-91461532D01*
X126154041Y-91477197D01*
X126235941Y-91544411D01*
X126389687Y-91626589D01*
X126556510Y-91677195D01*
X126686523Y-91690000D01*
X126686533Y-91690000D01*
X126729999Y-91694281D01*
X126773465Y-91690000D01*
X129815941Y-91690000D01*
X129921013Y-91847252D01*
X130148748Y-92074987D01*
X130257600Y-92147720D01*
X130235192Y-92209587D01*
X131191000Y-93165395D01*
X132146808Y-92209587D01*
X132124400Y-92147720D01*
X132233252Y-92074987D01*
X132460987Y-91847252D01*
X132639918Y-91579463D01*
X132763168Y-91281912D01*
X132826000Y-90966033D01*
X132826000Y-90643967D01*
X132763168Y-90328088D01*
X132639918Y-90030537D01*
X132499370Y-89820191D01*
X132545494Y-89795537D01*
X132642185Y-89716185D01*
X132721537Y-89619494D01*
X132780502Y-89509180D01*
X132816812Y-89389482D01*
X132829072Y-89265000D01*
X132829072Y-87265000D01*
X132816812Y-87140518D01*
X132780502Y-87020820D01*
X132721537Y-86910506D01*
X132642185Y-86813815D01*
X132545494Y-86734463D01*
X132435180Y-86675498D01*
X132315482Y-86639188D01*
X132191000Y-86626928D01*
X130191000Y-86626928D01*
X130066518Y-86639188D01*
X129946820Y-86675498D01*
X129836506Y-86734463D01*
X129739815Y-86813815D01*
X129660463Y-86910506D01*
X129601498Y-87020820D01*
X129565188Y-87140518D01*
X129552928Y-87265000D01*
X129552928Y-89265000D01*
X129565188Y-89389482D01*
X129601498Y-89509180D01*
X129660463Y-89619494D01*
X129739815Y-89716185D01*
X129836506Y-89795537D01*
X129882630Y-89820191D01*
X129815941Y-89920000D01*
X127096579Y-89920000D01*
X126466535Y-89289957D01*
X126455226Y-89233102D01*
X126377205Y-89044744D01*
X126263937Y-88875226D01*
X126119774Y-88731063D01*
X125950256Y-88617795D01*
X125761898Y-88539774D01*
X125561939Y-88500000D01*
X125358061Y-88500000D01*
X125158102Y-88539774D01*
X124969744Y-88617795D01*
X124800226Y-88731063D01*
X124656063Y-88875226D01*
X124542795Y-89044744D01*
X124464774Y-89233102D01*
X124425000Y-89433061D01*
X89034038Y-89433061D01*
X89001180Y-89415498D01*
X88881482Y-89379188D01*
X88757000Y-89366928D01*
X88632683Y-89366928D01*
X88629195Y-89331510D01*
X88623294Y-89312057D01*
X88578589Y-89164686D01*
X88496411Y-89010941D01*
X88413532Y-88909953D01*
X88413530Y-88909951D01*
X88385817Y-88876183D01*
X88352049Y-88848470D01*
X86991000Y-87487422D01*
X86991000Y-87036072D01*
X87106000Y-87036072D01*
X87230482Y-87023812D01*
X87350180Y-86987502D01*
X87460494Y-86928537D01*
X87557185Y-86849185D01*
X87636537Y-86752494D01*
X87695502Y-86642180D01*
X87731812Y-86522482D01*
X87744072Y-86398000D01*
X88467928Y-86398000D01*
X88480188Y-86522482D01*
X88516498Y-86642180D01*
X88575463Y-86752494D01*
X88654815Y-86849185D01*
X88751506Y-86928537D01*
X88861820Y-86987502D01*
X88981518Y-87023812D01*
X89106000Y-87036072D01*
X89820250Y-87033000D01*
X89979000Y-86874250D01*
X89979000Y-85725000D01*
X90233000Y-85725000D01*
X90233000Y-86874250D01*
X90391750Y-87033000D01*
X91106000Y-87036072D01*
X91230482Y-87023812D01*
X91350180Y-86987502D01*
X91460494Y-86928537D01*
X91557185Y-86849185D01*
X91636537Y-86752494D01*
X91695502Y-86642180D01*
X91731812Y-86522482D01*
X91744072Y-86398000D01*
X91741000Y-85883750D01*
X91582250Y-85725000D01*
X90233000Y-85725000D01*
X89979000Y-85725000D01*
X88629750Y-85725000D01*
X88471000Y-85883750D01*
X88467928Y-86398000D01*
X87744072Y-86398000D01*
X87744072Y-84798000D01*
X88467928Y-84798000D01*
X88471000Y-85312250D01*
X88629750Y-85471000D01*
X89979000Y-85471000D01*
X89979000Y-84321750D01*
X90233000Y-84321750D01*
X90233000Y-85471000D01*
X91582250Y-85471000D01*
X91741000Y-85312250D01*
X91744072Y-84798000D01*
X91731812Y-84673518D01*
X91695502Y-84553820D01*
X91636537Y-84443506D01*
X91557185Y-84346815D01*
X91460494Y-84267463D01*
X91350180Y-84208498D01*
X91230482Y-84172188D01*
X91106000Y-84159928D01*
X90391750Y-84163000D01*
X90233000Y-84321750D01*
X89979000Y-84321750D01*
X89820250Y-84163000D01*
X89106000Y-84159928D01*
X88981518Y-84172188D01*
X88861820Y-84208498D01*
X88751506Y-84267463D01*
X88654815Y-84346815D01*
X88575463Y-84443506D01*
X88516498Y-84553820D01*
X88480188Y-84673518D01*
X88467928Y-84798000D01*
X87744072Y-84798000D01*
X87731812Y-84673518D01*
X87695502Y-84553820D01*
X87636537Y-84443506D01*
X87557185Y-84346815D01*
X87460494Y-84267463D01*
X87413327Y-84242251D01*
X88636514Y-83019065D01*
X88662059Y-83005411D01*
X88796817Y-82894817D01*
X88811692Y-82876692D01*
X88829817Y-82861817D01*
X88940411Y-82727059D01*
X89022589Y-82573313D01*
X89073195Y-82406490D01*
X89086000Y-82276477D01*
X89086000Y-82276467D01*
X89090281Y-82233001D01*
X89086000Y-82189534D01*
X89086000Y-81699000D01*
X89547928Y-81699000D01*
X89560188Y-81823482D01*
X89596498Y-81943180D01*
X89655463Y-82053494D01*
X89734815Y-82150185D01*
X89831506Y-82229537D01*
X89941820Y-82288502D01*
X90061518Y-82324812D01*
X90186000Y-82337072D01*
X90900250Y-82334000D01*
X91059000Y-82175250D01*
X91059000Y-81026000D01*
X91313000Y-81026000D01*
X91313000Y-82175250D01*
X91471750Y-82334000D01*
X92186000Y-82337072D01*
X92310482Y-82324812D01*
X92430180Y-82288502D01*
X92540494Y-82229537D01*
X92637185Y-82150185D01*
X92716537Y-82053494D01*
X92775502Y-81943180D01*
X92811812Y-81823482D01*
X92824072Y-81699000D01*
X92821000Y-81184750D01*
X92662250Y-81026000D01*
X91313000Y-81026000D01*
X91059000Y-81026000D01*
X89709750Y-81026000D01*
X89551000Y-81184750D01*
X89547928Y-81699000D01*
X89086000Y-81699000D01*
X89086000Y-80099000D01*
X89547928Y-80099000D01*
X89551000Y-80613250D01*
X89709750Y-80772000D01*
X91059000Y-80772000D01*
X91059000Y-79622750D01*
X91313000Y-79622750D01*
X91313000Y-80772000D01*
X92662250Y-80772000D01*
X92821000Y-80613250D01*
X92824072Y-80099000D01*
X93547928Y-80099000D01*
X93547928Y-81699000D01*
X93560188Y-81823482D01*
X93596498Y-81943180D01*
X93655463Y-82053494D01*
X93734815Y-82150185D01*
X93831506Y-82229537D01*
X93941820Y-82288502D01*
X94061518Y-82324812D01*
X94186000Y-82337072D01*
X96186000Y-82337072D01*
X96310482Y-82324812D01*
X96430180Y-82288502D01*
X96540494Y-82229537D01*
X96637185Y-82150185D01*
X96659011Y-82123590D01*
X97032000Y-82496579D01*
X97032001Y-84170545D01*
X96999795Y-84218744D01*
X96921774Y-84407102D01*
X96882000Y-84607061D01*
X96882000Y-84810939D01*
X96921774Y-85010898D01*
X96999795Y-85199256D01*
X97113063Y-85368774D01*
X97257226Y-85512937D01*
X97426744Y-85626205D01*
X97615102Y-85704226D01*
X97815061Y-85744000D01*
X98018939Y-85744000D01*
X98218898Y-85704226D01*
X98407256Y-85626205D01*
X98576774Y-85512937D01*
X98720937Y-85368774D01*
X98834205Y-85199256D01*
X98912226Y-85010898D01*
X98952000Y-84810939D01*
X98952000Y-84607061D01*
X98912226Y-84407102D01*
X98834205Y-84218744D01*
X98802000Y-84170546D01*
X98802000Y-82288413D01*
X130235192Y-82288413D01*
X130330956Y-82552814D01*
X130620571Y-82693704D01*
X130932108Y-82775384D01*
X131253595Y-82794718D01*
X131572675Y-82750961D01*
X131877088Y-82645795D01*
X132051044Y-82552814D01*
X132146808Y-82288413D01*
X131191000Y-81332605D01*
X130235192Y-82288413D01*
X98802000Y-82288413D01*
X98802000Y-82085477D01*
X98806282Y-82042000D01*
X98802000Y-81998523D01*
X98802000Y-81215595D01*
X129549282Y-81215595D01*
X129593039Y-81534675D01*
X129698205Y-81839088D01*
X129791186Y-82013044D01*
X130055587Y-82108808D01*
X131011395Y-81153000D01*
X131370605Y-81153000D01*
X132326413Y-82108808D01*
X132590814Y-82013044D01*
X132731704Y-81723429D01*
X132813384Y-81411892D01*
X132832718Y-81090405D01*
X132788961Y-80771325D01*
X132683795Y-80466912D01*
X132590814Y-80292956D01*
X132326413Y-80197192D01*
X131370605Y-81153000D01*
X131011395Y-81153000D01*
X130055587Y-80197192D01*
X129791186Y-80292956D01*
X129650296Y-80582571D01*
X129568616Y-80894108D01*
X129549282Y-81215595D01*
X98802000Y-81215595D01*
X98802000Y-79281454D01*
X98834205Y-79233256D01*
X98912226Y-79044898D01*
X98952000Y-78844939D01*
X98952000Y-78641061D01*
X98912226Y-78441102D01*
X98834205Y-78252744D01*
X98720937Y-78083226D01*
X98576774Y-77939063D01*
X98407256Y-77825795D01*
X98218898Y-77747774D01*
X98018939Y-77708000D01*
X97815061Y-77708000D01*
X97615102Y-77747774D01*
X97426744Y-77825795D01*
X97257226Y-77939063D01*
X97113063Y-78083226D01*
X96999795Y-78252744D01*
X96921774Y-78441102D01*
X96882000Y-78641061D01*
X96882000Y-78844939D01*
X96921774Y-79044898D01*
X96999795Y-79233256D01*
X97032000Y-79281455D01*
X97032000Y-80080451D01*
X97026313Y-80077411D01*
X96859490Y-80026805D01*
X96816545Y-80022575D01*
X96811812Y-79974518D01*
X96775502Y-79854820D01*
X96716537Y-79744506D01*
X96637185Y-79647815D01*
X96540494Y-79568463D01*
X96430180Y-79509498D01*
X96310482Y-79473188D01*
X96186000Y-79460928D01*
X94186000Y-79460928D01*
X94061518Y-79473188D01*
X93941820Y-79509498D01*
X93831506Y-79568463D01*
X93734815Y-79647815D01*
X93655463Y-79744506D01*
X93596498Y-79854820D01*
X93560188Y-79974518D01*
X93547928Y-80099000D01*
X92824072Y-80099000D01*
X92811812Y-79974518D01*
X92775502Y-79854820D01*
X92716537Y-79744506D01*
X92637185Y-79647815D01*
X92540494Y-79568463D01*
X92430180Y-79509498D01*
X92310482Y-79473188D01*
X92186000Y-79460928D01*
X91471750Y-79464000D01*
X91313000Y-79622750D01*
X91059000Y-79622750D01*
X90900250Y-79464000D01*
X90186000Y-79460928D01*
X90061518Y-79473188D01*
X89941820Y-79509498D01*
X89831506Y-79568463D01*
X89734815Y-79647815D01*
X89655463Y-79744506D01*
X89596498Y-79854820D01*
X89560188Y-79974518D01*
X89547928Y-80099000D01*
X89086000Y-80099000D01*
X89086000Y-79416072D01*
X89201000Y-79416072D01*
X89325482Y-79403812D01*
X89445180Y-79367502D01*
X89555494Y-79308537D01*
X89652185Y-79229185D01*
X89731537Y-79132494D01*
X89790502Y-79022180D01*
X89826812Y-78902482D01*
X89839072Y-78778000D01*
X89839072Y-77178000D01*
X89826812Y-77053518D01*
X89790502Y-76933820D01*
X89731537Y-76823506D01*
X89652185Y-76726815D01*
X89555494Y-76647463D01*
X89445180Y-76588498D01*
X89325482Y-76552188D01*
X89201000Y-76539928D01*
X89076683Y-76539928D01*
X89073195Y-76504510D01*
X89023000Y-76339042D01*
X89023000Y-76103454D01*
X89055205Y-76055256D01*
X89133226Y-75866898D01*
X89173000Y-75666939D01*
X89173000Y-75614885D01*
X116910557Y-75614885D01*
X116953178Y-75782324D01*
X117098483Y-76106985D01*
X117304334Y-76397060D01*
X117562821Y-76641402D01*
X117864010Y-76830621D01*
X118196327Y-76957445D01*
X118547000Y-77017000D01*
X118872000Y-77017000D01*
X118872000Y-75334000D01*
X119126000Y-75334000D01*
X119126000Y-77017000D01*
X119451000Y-77017000D01*
X119801673Y-76957445D01*
X120133990Y-76830621D01*
X120435179Y-76641402D01*
X120693666Y-76397060D01*
X120899517Y-76106985D01*
X121044822Y-75782324D01*
X121087443Y-75614885D01*
X120970359Y-75334000D01*
X119126000Y-75334000D01*
X118872000Y-75334000D01*
X117027641Y-75334000D01*
X116910557Y-75614885D01*
X89173000Y-75614885D01*
X89173000Y-75463061D01*
X89133226Y-75263102D01*
X89055205Y-75074744D01*
X88941937Y-74905226D01*
X88835826Y-74799115D01*
X116910557Y-74799115D01*
X117027641Y-75080000D01*
X118872000Y-75080000D01*
X118872000Y-73397000D01*
X119126000Y-73397000D01*
X119126000Y-75080000D01*
X120970359Y-75080000D01*
X120973276Y-75073000D01*
X129552928Y-75073000D01*
X129552928Y-77073000D01*
X129565188Y-77197482D01*
X129601498Y-77317180D01*
X129660463Y-77427494D01*
X129739815Y-77524185D01*
X129836506Y-77603537D01*
X129882630Y-77628191D01*
X129742082Y-77838537D01*
X129618832Y-78136088D01*
X129556000Y-78451967D01*
X129556000Y-78774033D01*
X129618832Y-79089912D01*
X129742082Y-79387463D01*
X129921013Y-79655252D01*
X130148748Y-79882987D01*
X130257600Y-79955720D01*
X130235192Y-80017587D01*
X131191000Y-80973395D01*
X132146808Y-80017587D01*
X132124400Y-79955720D01*
X132233252Y-79882987D01*
X132460987Y-79655252D01*
X132639918Y-79387463D01*
X132763168Y-79089912D01*
X132826000Y-78774033D01*
X132826000Y-78451967D01*
X132763168Y-78136088D01*
X132639918Y-77838537D01*
X132499370Y-77628191D01*
X132545494Y-77603537D01*
X132642185Y-77524185D01*
X132721537Y-77427494D01*
X132780502Y-77317180D01*
X132816812Y-77197482D01*
X132829072Y-77073000D01*
X132829072Y-75073000D01*
X132816812Y-74948518D01*
X132780502Y-74828820D01*
X132721537Y-74718506D01*
X132642185Y-74621815D01*
X132545494Y-74542463D01*
X132435180Y-74483498D01*
X132315482Y-74447188D01*
X132191000Y-74434928D01*
X130191000Y-74434928D01*
X130066518Y-74447188D01*
X129946820Y-74483498D01*
X129836506Y-74542463D01*
X129739815Y-74621815D01*
X129660463Y-74718506D01*
X129601498Y-74828820D01*
X129565188Y-74948518D01*
X129552928Y-75073000D01*
X120973276Y-75073000D01*
X121087443Y-74799115D01*
X121044822Y-74631676D01*
X120899517Y-74307015D01*
X120693666Y-74016940D01*
X120435179Y-73772598D01*
X120133990Y-73583379D01*
X119801673Y-73456555D01*
X119451000Y-73397000D01*
X119126000Y-73397000D01*
X118872000Y-73397000D01*
X118547000Y-73397000D01*
X118196327Y-73456555D01*
X117864010Y-73583379D01*
X117562821Y-73772598D01*
X117304334Y-74016940D01*
X117098483Y-74307015D01*
X116953178Y-74631676D01*
X116910557Y-74799115D01*
X88835826Y-74799115D01*
X88797774Y-74761063D01*
X88628256Y-74647795D01*
X88439898Y-74569774D01*
X88239939Y-74530000D01*
X88036061Y-74530000D01*
X87836102Y-74569774D01*
X87647744Y-74647795D01*
X87478226Y-74761063D01*
X87334063Y-74905226D01*
X87220795Y-75074744D01*
X87142774Y-75263102D01*
X87103000Y-75463061D01*
X87103000Y-75666939D01*
X87142774Y-75866898D01*
X87220795Y-76055256D01*
X87253000Y-76103455D01*
X87253000Y-76539928D01*
X87201000Y-76539928D01*
X87076518Y-76552188D01*
X86956820Y-76588498D01*
X86846506Y-76647463D01*
X86749815Y-76726815D01*
X86670463Y-76823506D01*
X86611498Y-76933820D01*
X86575188Y-77053518D01*
X86562928Y-77178000D01*
X86562928Y-78778000D01*
X86575188Y-78902482D01*
X86611498Y-79022180D01*
X86670463Y-79132494D01*
X86749815Y-79229185D01*
X86846506Y-79308537D01*
X86956820Y-79367502D01*
X87076518Y-79403812D01*
X87201000Y-79416072D01*
X87316001Y-79416072D01*
X87316000Y-81836421D01*
X85510951Y-83641471D01*
X85477184Y-83669183D01*
X85449471Y-83702951D01*
X85449468Y-83702954D01*
X85366590Y-83803941D01*
X85284412Y-83957687D01*
X85233805Y-84124510D01*
X85230317Y-84159928D01*
X85106000Y-84159928D01*
X84981518Y-84172188D01*
X84861820Y-84208498D01*
X84751506Y-84267463D01*
X84654815Y-84346815D01*
X84575463Y-84443506D01*
X84516498Y-84553820D01*
X84480188Y-84673518D01*
X84467928Y-84798000D01*
X84467928Y-86398000D01*
X84480188Y-86522482D01*
X84516498Y-86642180D01*
X84575463Y-86752494D01*
X84654815Y-86849185D01*
X84751506Y-86928537D01*
X84861820Y-86987502D01*
X84981518Y-87023812D01*
X85106000Y-87036072D01*
X85221000Y-87036072D01*
X85221000Y-87810531D01*
X85216719Y-87854000D01*
X85221000Y-87897469D01*
X85221000Y-87897476D01*
X85230433Y-87993256D01*
X85233805Y-88027490D01*
X85249157Y-88078096D01*
X85284411Y-88194312D01*
X85366589Y-88348058D01*
X85477183Y-88482817D01*
X85510956Y-88510534D01*
X86449673Y-89449251D01*
X86402506Y-89474463D01*
X86305815Y-89553815D01*
X86226463Y-89650506D01*
X86167498Y-89760820D01*
X86131188Y-89880518D01*
X86118928Y-90005000D01*
X86118928Y-91605000D01*
X86131188Y-91729482D01*
X86167498Y-91849180D01*
X86226463Y-91959494D01*
X86305815Y-92056185D01*
X86402506Y-92135537D01*
X86512820Y-92194502D01*
X86632518Y-92230812D01*
X86757000Y-92243072D01*
X86872001Y-92243072D01*
X86872001Y-93472000D01*
X83004461Y-93472000D01*
X82959205Y-93362744D01*
X82845937Y-93193226D01*
X82701774Y-93049063D01*
X82532256Y-92935795D01*
X82343898Y-92857774D01*
X82143939Y-92818000D01*
X82081801Y-92818000D01*
X82040000Y-92776199D01*
X82040000Y-91605000D01*
X82118928Y-91605000D01*
X82131188Y-91729482D01*
X82167498Y-91849180D01*
X82226463Y-91959494D01*
X82305815Y-92056185D01*
X82402506Y-92135537D01*
X82512820Y-92194502D01*
X82632518Y-92230812D01*
X82757000Y-92243072D01*
X83471250Y-92240000D01*
X83630000Y-92081250D01*
X83630000Y-90932000D01*
X83884000Y-90932000D01*
X83884000Y-92081250D01*
X84042750Y-92240000D01*
X84757000Y-92243072D01*
X84881482Y-92230812D01*
X85001180Y-92194502D01*
X85111494Y-92135537D01*
X85208185Y-92056185D01*
X85287537Y-91959494D01*
X85346502Y-91849180D01*
X85382812Y-91729482D01*
X85395072Y-91605000D01*
X85392000Y-91090750D01*
X85233250Y-90932000D01*
X83884000Y-90932000D01*
X83630000Y-90932000D01*
X82280750Y-90932000D01*
X82122000Y-91090750D01*
X82118928Y-91605000D01*
X82040000Y-91605000D01*
X82040000Y-90080325D01*
X82043676Y-90043000D01*
X82040000Y-90005675D01*
X82040000Y-90005667D01*
X82039935Y-90005000D01*
X82118928Y-90005000D01*
X82122000Y-90519250D01*
X82280750Y-90678000D01*
X83630000Y-90678000D01*
X83630000Y-89528750D01*
X83884000Y-89528750D01*
X83884000Y-90678000D01*
X85233250Y-90678000D01*
X85392000Y-90519250D01*
X85395072Y-90005000D01*
X85382812Y-89880518D01*
X85346502Y-89760820D01*
X85287537Y-89650506D01*
X85208185Y-89553815D01*
X85111494Y-89474463D01*
X85001180Y-89415498D01*
X84881482Y-89379188D01*
X84757000Y-89366928D01*
X84042750Y-89370000D01*
X83884000Y-89528750D01*
X83630000Y-89528750D01*
X83471250Y-89370000D01*
X82757000Y-89366928D01*
X82632518Y-89379188D01*
X82512820Y-89415498D01*
X82402506Y-89474463D01*
X82305815Y-89553815D01*
X82226463Y-89650506D01*
X82167498Y-89760820D01*
X82131188Y-89880518D01*
X82118928Y-90005000D01*
X82039935Y-90005000D01*
X82029003Y-89894014D01*
X81985546Y-89750753D01*
X81914974Y-89618724D01*
X81820001Y-89502999D01*
X81791003Y-89479201D01*
X79775000Y-87463199D01*
X79775000Y-87401061D01*
X79735226Y-87201102D01*
X79657205Y-87012744D01*
X79543937Y-86843226D01*
X79399774Y-86699063D01*
X79230256Y-86585795D01*
X79041898Y-86507774D01*
X78841939Y-86468000D01*
X78638061Y-86468000D01*
X78438102Y-86507774D01*
X78249744Y-86585795D01*
X78207532Y-86614000D01*
X77573845Y-86614000D01*
X77597000Y-86497592D01*
X77597000Y-86222408D01*
X77543314Y-85952510D01*
X77438005Y-85698273D01*
X77285120Y-85469465D01*
X77090535Y-85274880D01*
X77002535Y-85216080D01*
X77086482Y-85207812D01*
X77206180Y-85171502D01*
X77316494Y-85112537D01*
X77413185Y-85033185D01*
X77492537Y-84936494D01*
X77551502Y-84826180D01*
X77587812Y-84706482D01*
X77600072Y-84582000D01*
X77600072Y-83058000D01*
X77587812Y-82933518D01*
X77551502Y-82813820D01*
X77492537Y-82703506D01*
X77413185Y-82606815D01*
X77316494Y-82527463D01*
X77206180Y-82468498D01*
X77086482Y-82432188D01*
X76962000Y-82419928D01*
X75438000Y-82419928D01*
X75313518Y-82432188D01*
X75193820Y-82468498D01*
X75083506Y-82527463D01*
X74986815Y-82606815D01*
X74907463Y-82703506D01*
X74848498Y-82813820D01*
X74812188Y-82933518D01*
X74803920Y-83017465D01*
X74745120Y-82929465D01*
X74550535Y-82734880D01*
X74321727Y-82581995D01*
X74067490Y-82476686D01*
X73797592Y-82423000D01*
X73522408Y-82423000D01*
X73252510Y-82476686D01*
X72998273Y-82581995D01*
X72769465Y-82734880D01*
X72574880Y-82929465D01*
X72421995Y-83158273D01*
X72316686Y-83412510D01*
X72263000Y-83682408D01*
X72263000Y-83957592D01*
X72316686Y-84227490D01*
X72421995Y-84481727D01*
X72574880Y-84710535D01*
X72769465Y-84905120D01*
X72998273Y-85058005D01*
X73075515Y-85090000D01*
X72998273Y-85121995D01*
X72769465Y-85274880D01*
X72574880Y-85469465D01*
X72421995Y-85698273D01*
X72316686Y-85952510D01*
X72263000Y-86222408D01*
X72263000Y-86497592D01*
X72316686Y-86767490D01*
X72421995Y-87021727D01*
X72574880Y-87250535D01*
X72769465Y-87445120D01*
X72998273Y-87598005D01*
X73075515Y-87630000D01*
X72998273Y-87661995D01*
X72769465Y-87814880D01*
X72574880Y-88009465D01*
X72421995Y-88238273D01*
X72316686Y-88492510D01*
X72263000Y-88762408D01*
X72263000Y-89037592D01*
X72316686Y-89307490D01*
X72421995Y-89561727D01*
X72574880Y-89790535D01*
X72769465Y-89985120D01*
X72998273Y-90138005D01*
X73075515Y-90170000D01*
X72998273Y-90201995D01*
X72769465Y-90354880D01*
X72574880Y-90549465D01*
X72421995Y-90778273D01*
X72316686Y-91032510D01*
X72263000Y-91302408D01*
X72263000Y-91577592D01*
X72316686Y-91847490D01*
X72421995Y-92101727D01*
X72574880Y-92330535D01*
X72769465Y-92525120D01*
X72998273Y-92678005D01*
X73069943Y-92707692D01*
X73056977Y-92712364D01*
X72941020Y-92774344D01*
X72874040Y-93014435D01*
X73660000Y-93800395D01*
X73674143Y-93786253D01*
X73853748Y-93965858D01*
X73839605Y-93980000D01*
X73853748Y-93994143D01*
X73674143Y-94173748D01*
X73660000Y-94159605D01*
X72874040Y-94945565D01*
X72941020Y-95185656D01*
X73076760Y-95249485D01*
X72998273Y-95281995D01*
X72769465Y-95434880D01*
X72574880Y-95629465D01*
X72421995Y-95858273D01*
X72316686Y-96112510D01*
X72263000Y-96382408D01*
X72263000Y-96657592D01*
X72316686Y-96927490D01*
X72421995Y-97181727D01*
X72574880Y-97410535D01*
X72769465Y-97605120D01*
X72998273Y-97758005D01*
X73252510Y-97863314D01*
X73522408Y-97917000D01*
X73797592Y-97917000D01*
X73804122Y-97915701D01*
X74400470Y-98512049D01*
X74428183Y-98545817D01*
X74461951Y-98573530D01*
X74461953Y-98573532D01*
X74533452Y-98632210D01*
X74562941Y-98656411D01*
X74716687Y-98738589D01*
X74883510Y-98789195D01*
X75013523Y-98802000D01*
X75013533Y-98802000D01*
X75056999Y-98806281D01*
X75100465Y-98802000D01*
X77553533Y-98802000D01*
X77596999Y-98806281D01*
X77640465Y-98802000D01*
X84540299Y-98802000D01*
X84544188Y-98841482D01*
X84580498Y-98961180D01*
X84639463Y-99071494D01*
X84718815Y-99168185D01*
X84741741Y-99187000D01*
X70993000Y-99187000D01*
X70993000Y-94052017D01*
X72258090Y-94052017D01*
X72299078Y-94324133D01*
X72392364Y-94583023D01*
X72454344Y-94698980D01*
X72694435Y-94765960D01*
X73480395Y-93980000D01*
X72694435Y-93194040D01*
X72454344Y-93261020D01*
X72337244Y-93510048D01*
X72270977Y-93777135D01*
X72258090Y-94052017D01*
X70993000Y-94052017D01*
X70993000Y-79908061D01*
X81769000Y-79908061D01*
X81769000Y-80111939D01*
X81808774Y-80311898D01*
X81886795Y-80500256D01*
X82000063Y-80669774D01*
X82044001Y-80713712D01*
X82044000Y-84513289D01*
X82000063Y-84557226D01*
X81886795Y-84726744D01*
X81808774Y-84915102D01*
X81769000Y-85115061D01*
X81769000Y-85318939D01*
X81808774Y-85518898D01*
X81886795Y-85707256D01*
X82000063Y-85876774D01*
X82144226Y-86020937D01*
X82313744Y-86134205D01*
X82502102Y-86212226D01*
X82702061Y-86252000D01*
X82905939Y-86252000D01*
X83105898Y-86212226D01*
X83294256Y-86134205D01*
X83463774Y-86020937D01*
X83607937Y-85876774D01*
X83721205Y-85707256D01*
X83799226Y-85518898D01*
X83839000Y-85318939D01*
X83839000Y-85115061D01*
X83799226Y-84915102D01*
X83721205Y-84726744D01*
X83607937Y-84557226D01*
X83564000Y-84513289D01*
X83564000Y-80713711D01*
X83607937Y-80669774D01*
X83721205Y-80500256D01*
X83799226Y-80311898D01*
X83839000Y-80111939D01*
X83839000Y-79908061D01*
X83799226Y-79708102D01*
X83721205Y-79519744D01*
X83650642Y-79414138D01*
X83915250Y-79413000D01*
X84074000Y-79254250D01*
X84074000Y-78105000D01*
X84328000Y-78105000D01*
X84328000Y-79254250D01*
X84486750Y-79413000D01*
X85201000Y-79416072D01*
X85325482Y-79403812D01*
X85445180Y-79367502D01*
X85555494Y-79308537D01*
X85652185Y-79229185D01*
X85731537Y-79132494D01*
X85790502Y-79022180D01*
X85826812Y-78902482D01*
X85839072Y-78778000D01*
X85836000Y-78263750D01*
X85677250Y-78105000D01*
X84328000Y-78105000D01*
X84074000Y-78105000D01*
X82724750Y-78105000D01*
X82566000Y-78263750D01*
X82562928Y-78778000D01*
X82575188Y-78902482D01*
X82603154Y-78994674D01*
X82502102Y-79014774D01*
X82313744Y-79092795D01*
X82144226Y-79206063D01*
X82000063Y-79350226D01*
X81886795Y-79519744D01*
X81808774Y-79708102D01*
X81769000Y-79908061D01*
X70993000Y-79908061D01*
X70993000Y-77178000D01*
X82562928Y-77178000D01*
X82566000Y-77692250D01*
X82724750Y-77851000D01*
X84074000Y-77851000D01*
X84074000Y-76701750D01*
X84328000Y-76701750D01*
X84328000Y-77851000D01*
X85677250Y-77851000D01*
X85836000Y-77692250D01*
X85839072Y-77178000D01*
X85826812Y-77053518D01*
X85790502Y-76933820D01*
X85731537Y-76823506D01*
X85652185Y-76726815D01*
X85555494Y-76647463D01*
X85445180Y-76588498D01*
X85325482Y-76552188D01*
X85201000Y-76539928D01*
X84486750Y-76543000D01*
X84328000Y-76701750D01*
X84074000Y-76701750D01*
X83915250Y-76543000D01*
X83201000Y-76539928D01*
X83076518Y-76552188D01*
X82956820Y-76588498D01*
X82846506Y-76647463D01*
X82749815Y-76726815D01*
X82670463Y-76823506D01*
X82611498Y-76933820D01*
X82575188Y-77053518D01*
X82562928Y-77178000D01*
X70993000Y-77178000D01*
X70993000Y-70072000D01*
X116860928Y-70072000D01*
X116860928Y-72422000D01*
X116873188Y-72546482D01*
X116909498Y-72666180D01*
X116968463Y-72776494D01*
X117047815Y-72873185D01*
X117144506Y-72952537D01*
X117254820Y-73011502D01*
X117374518Y-73047812D01*
X117499000Y-73060072D01*
X120499000Y-73060072D01*
X120623482Y-73047812D01*
X120743180Y-73011502D01*
X120853494Y-72952537D01*
X120950185Y-72873185D01*
X121029537Y-72776494D01*
X121088502Y-72666180D01*
X121124812Y-72546482D01*
X121137072Y-72422000D01*
X121137072Y-70072000D01*
X121124812Y-69947518D01*
X121088502Y-69827820D01*
X121029537Y-69717506D01*
X120950185Y-69620815D01*
X120853494Y-69541463D01*
X120743180Y-69482498D01*
X120623482Y-69446188D01*
X120499000Y-69433928D01*
X117499000Y-69433928D01*
X117374518Y-69446188D01*
X117254820Y-69482498D01*
X117144506Y-69541463D01*
X117047815Y-69620815D01*
X116968463Y-69717506D01*
X116909498Y-69827820D01*
X116873188Y-69947518D01*
X116860928Y-70072000D01*
X70993000Y-70072000D01*
X70993000Y-63373000D01*
X133477000Y-63373000D01*
X133477000Y-99187000D01*
X133477000Y-99187000D01*
G37*
X133477000Y-99187000D02*
X91598259Y-99187000D01*
X91621185Y-99168185D01*
X91700537Y-99071494D01*
X91759502Y-98961180D01*
X91795812Y-98841482D01*
X91808072Y-98717000D01*
X91805000Y-98202750D01*
X91646250Y-98044000D01*
X90297000Y-98044000D01*
X90297000Y-98064000D01*
X90043000Y-98064000D01*
X90043000Y-98044000D01*
X88693750Y-98044000D01*
X88535000Y-98202750D01*
X88531928Y-98717000D01*
X88544188Y-98841482D01*
X88580498Y-98961180D01*
X88639463Y-99071494D01*
X88718815Y-99168185D01*
X88741741Y-99187000D01*
X87598259Y-99187000D01*
X87621185Y-99168185D01*
X87700537Y-99071494D01*
X87759502Y-98961180D01*
X87795812Y-98841482D01*
X87808072Y-98717000D01*
X87808072Y-97730507D01*
X88352050Y-97186529D01*
X88385817Y-97158817D01*
X88420136Y-97117000D01*
X88531928Y-97117000D01*
X88535000Y-97631250D01*
X88693750Y-97790000D01*
X90043000Y-97790000D01*
X90043000Y-96640750D01*
X90297000Y-96640750D01*
X90297000Y-97790000D01*
X91646250Y-97790000D01*
X91805000Y-97631250D01*
X91808072Y-97117000D01*
X91795812Y-96992518D01*
X91759502Y-96872820D01*
X91700537Y-96762506D01*
X91621185Y-96665815D01*
X91524494Y-96586463D01*
X91414180Y-96527498D01*
X91294482Y-96491188D01*
X91170000Y-96478928D01*
X90455750Y-96482000D01*
X90297000Y-96640750D01*
X90043000Y-96640750D01*
X89884250Y-96482000D01*
X89170000Y-96478928D01*
X89045518Y-96491188D01*
X88925820Y-96527498D01*
X88815506Y-96586463D01*
X88718815Y-96665815D01*
X88639463Y-96762506D01*
X88580498Y-96872820D01*
X88544188Y-96992518D01*
X88531928Y-97117000D01*
X88420136Y-97117000D01*
X88421740Y-97115046D01*
X88496410Y-97024060D01*
X88496411Y-97024059D01*
X88578589Y-96870313D01*
X88629195Y-96703490D01*
X88642000Y-96573477D01*
X88642000Y-96573467D01*
X88646281Y-96530001D01*
X88642000Y-96486535D01*
X88642000Y-94272000D01*
X89484928Y-94272000D01*
X89497188Y-94396482D01*
X89533498Y-94516180D01*
X89592463Y-94626494D01*
X89671815Y-94723185D01*
X89768506Y-94802537D01*
X89878820Y-94861502D01*
X89998518Y-94897812D01*
X90123000Y-94910072D01*
X90837250Y-94907000D01*
X90996000Y-94748250D01*
X90996000Y-93599000D01*
X91250000Y-93599000D01*
X91250000Y-94748250D01*
X91408750Y-94907000D01*
X92123000Y-94910072D01*
X92247482Y-94897812D01*
X92367180Y-94861502D01*
X92477494Y-94802537D01*
X92574185Y-94723185D01*
X92653537Y-94626494D01*
X92712502Y-94516180D01*
X92748812Y-94396482D01*
X92761072Y-94272000D01*
X92758000Y-93757750D01*
X92599250Y-93599000D01*
X91250000Y-93599000D01*
X90996000Y-93599000D01*
X89646750Y-93599000D01*
X89488000Y-93757750D01*
X89484928Y-94272000D01*
X88642000Y-94272000D01*
X88642000Y-92672000D01*
X89484928Y-92672000D01*
X89488000Y-93186250D01*
X89646750Y-93345000D01*
X90996000Y-93345000D01*
X90996000Y-92195750D01*
X91250000Y-92195750D01*
X91250000Y-93345000D01*
X92599250Y-93345000D01*
X92758000Y-93186250D01*
X92761072Y-92672000D01*
X93484928Y-92672000D01*
X93484928Y-94272000D01*
X93497188Y-94396482D01*
X93533498Y-94516180D01*
X93592463Y-94626494D01*
X93671815Y-94723185D01*
X93768506Y-94802537D01*
X93878820Y-94861502D01*
X93998518Y-94897812D01*
X94123000Y-94910072D01*
X96123000Y-94910072D01*
X96247482Y-94897812D01*
X96367180Y-94861502D01*
X96477494Y-94802537D01*
X96574185Y-94723185D01*
X96653537Y-94626494D01*
X96712502Y-94516180D01*
X96723351Y-94480413D01*
X130235192Y-94480413D01*
X130330956Y-94744814D01*
X130620571Y-94885704D01*
X130932108Y-94967384D01*
X131253595Y-94986718D01*
X131572675Y-94942961D01*
X131877088Y-94837795D01*
X132051044Y-94744814D01*
X132146808Y-94480413D01*
X131191000Y-93524605D01*
X130235192Y-94480413D01*
X96723351Y-94480413D01*
X96748812Y-94396482D01*
X96752701Y-94357000D01*
X96941531Y-94357000D01*
X96985000Y-94361281D01*
X97028469Y-94357000D01*
X97028477Y-94357000D01*
X97158490Y-94344195D01*
X97325313Y-94293589D01*
X97436998Y-94233893D01*
X97540898Y-94213226D01*
X97729256Y-94135205D01*
X97898774Y-94021937D01*
X98042937Y-93877774D01*
X98156205Y-93708256D01*
X98234226Y-93519898D01*
X98256564Y-93407595D01*
X129549282Y-93407595D01*
X129593039Y-93726675D01*
X129698205Y-94031088D01*
X129791186Y-94205044D01*
X130055587Y-94300808D01*
X131011395Y-93345000D01*
X131370605Y-93345000D01*
X132326413Y-94300808D01*
X132590814Y-94205044D01*
X132731704Y-93915429D01*
X132813384Y-93603892D01*
X132832718Y-93282405D01*
X132788961Y-92963325D01*
X132683795Y-92658912D01*
X132590814Y-92484956D01*
X132326413Y-92389192D01*
X131370605Y-93345000D01*
X131011395Y-93345000D01*
X130055587Y-92389192D01*
X129791186Y-92484956D01*
X129650296Y-92774571D01*
X129568616Y-93086108D01*
X129549282Y-93407595D01*
X98256564Y-93407595D01*
X98274000Y-93319939D01*
X98274000Y-93116061D01*
X98234226Y-92916102D01*
X98156205Y-92727744D01*
X98042937Y-92558226D01*
X97898774Y-92414063D01*
X97729256Y-92300795D01*
X97540898Y-92222774D01*
X97340939Y-92183000D01*
X97137061Y-92183000D01*
X96937102Y-92222774D01*
X96748744Y-92300795D01*
X96672010Y-92352067D01*
X96653537Y-92317506D01*
X96574185Y-92220815D01*
X96477494Y-92141463D01*
X96367180Y-92082498D01*
X96247482Y-92046188D01*
X96123000Y-92033928D01*
X94123000Y-92033928D01*
X93998518Y-92046188D01*
X93878820Y-92082498D01*
X93768506Y-92141463D01*
X93671815Y-92220815D01*
X93592463Y-92317506D01*
X93533498Y-92427820D01*
X93497188Y-92547518D01*
X93484928Y-92672000D01*
X92761072Y-92672000D01*
X92748812Y-92547518D01*
X92712502Y-92427820D01*
X92653537Y-92317506D01*
X92574185Y-92220815D01*
X92477494Y-92141463D01*
X92367180Y-92082498D01*
X92247482Y-92046188D01*
X92123000Y-92033928D01*
X91408750Y-92037000D01*
X91250000Y-92195750D01*
X90996000Y-92195750D01*
X90837250Y-92037000D01*
X90123000Y-92033928D01*
X89998518Y-92046188D01*
X89878820Y-92082498D01*
X89768506Y-92141463D01*
X89671815Y-92220815D01*
X89592463Y-92317506D01*
X89533498Y-92427820D01*
X89497188Y-92547518D01*
X89484928Y-92672000D01*
X88642000Y-92672000D01*
X88642000Y-92243072D01*
X88757000Y-92243072D01*
X88881482Y-92230812D01*
X89001180Y-92194502D01*
X89111494Y-92135537D01*
X89208185Y-92056185D01*
X89287537Y-91959494D01*
X89346502Y-91849180D01*
X89382812Y-91729482D01*
X89395072Y-91605000D01*
X89395072Y-90005000D01*
X89382812Y-89880518D01*
X89346502Y-89760820D01*
X89287537Y-89650506D01*
X89208185Y-89553815D01*
X89111494Y-89474463D01*
X89034038Y-89433061D01*
X124425000Y-89433061D01*
X124425000Y-89636939D01*
X124464774Y-89836898D01*
X124542795Y-90025256D01*
X124656063Y-90194774D01*
X124800226Y-90338937D01*
X124969744Y-90452205D01*
X125158102Y-90530226D01*
X125214957Y-90541535D01*
X126073470Y-91400049D01*
X126101183Y-91433817D01*
X126134951Y-91461530D01*
X126134953Y-91461532D01*
X126154041Y-91477197D01*
X126235941Y-91544411D01*
X126389687Y-91626589D01*
X126556510Y-91677195D01*
X126686523Y-91690000D01*
X126686533Y-91690000D01*
X126729999Y-91694281D01*
X126773465Y-91690000D01*
X129815941Y-91690000D01*
X129921013Y-91847252D01*
X130148748Y-92074987D01*
X130257600Y-92147720D01*
X130235192Y-92209587D01*
X131191000Y-93165395D01*
X132146808Y-92209587D01*
X132124400Y-92147720D01*
X132233252Y-92074987D01*
X132460987Y-91847252D01*
X132639918Y-91579463D01*
X132763168Y-91281912D01*
X132826000Y-90966033D01*
X132826000Y-90643967D01*
X132763168Y-90328088D01*
X132639918Y-90030537D01*
X132499370Y-89820191D01*
X132545494Y-89795537D01*
X132642185Y-89716185D01*
X132721537Y-89619494D01*
X132780502Y-89509180D01*
X132816812Y-89389482D01*
X132829072Y-89265000D01*
X132829072Y-87265000D01*
X132816812Y-87140518D01*
X132780502Y-87020820D01*
X132721537Y-86910506D01*
X132642185Y-86813815D01*
X132545494Y-86734463D01*
X132435180Y-86675498D01*
X132315482Y-86639188D01*
X132191000Y-86626928D01*
X130191000Y-86626928D01*
X130066518Y-86639188D01*
X129946820Y-86675498D01*
X129836506Y-86734463D01*
X129739815Y-86813815D01*
X129660463Y-86910506D01*
X129601498Y-87020820D01*
X129565188Y-87140518D01*
X129552928Y-87265000D01*
X129552928Y-89265000D01*
X129565188Y-89389482D01*
X129601498Y-89509180D01*
X129660463Y-89619494D01*
X129739815Y-89716185D01*
X129836506Y-89795537D01*
X129882630Y-89820191D01*
X129815941Y-89920000D01*
X127096579Y-89920000D01*
X126466535Y-89289957D01*
X126455226Y-89233102D01*
X126377205Y-89044744D01*
X126263937Y-88875226D01*
X126119774Y-88731063D01*
X125950256Y-88617795D01*
X125761898Y-88539774D01*
X125561939Y-88500000D01*
X125358061Y-88500000D01*
X125158102Y-88539774D01*
X124969744Y-88617795D01*
X124800226Y-88731063D01*
X124656063Y-88875226D01*
X124542795Y-89044744D01*
X124464774Y-89233102D01*
X124425000Y-89433061D01*
X89034038Y-89433061D01*
X89001180Y-89415498D01*
X88881482Y-89379188D01*
X88757000Y-89366928D01*
X88632683Y-89366928D01*
X88629195Y-89331510D01*
X88623294Y-89312057D01*
X88578589Y-89164686D01*
X88496411Y-89010941D01*
X88413532Y-88909953D01*
X88413530Y-88909951D01*
X88385817Y-88876183D01*
X88352049Y-88848470D01*
X86991000Y-87487422D01*
X86991000Y-87036072D01*
X87106000Y-87036072D01*
X87230482Y-87023812D01*
X87350180Y-86987502D01*
X87460494Y-86928537D01*
X87557185Y-86849185D01*
X87636537Y-86752494D01*
X87695502Y-86642180D01*
X87731812Y-86522482D01*
X87744072Y-86398000D01*
X88467928Y-86398000D01*
X88480188Y-86522482D01*
X88516498Y-86642180D01*
X88575463Y-86752494D01*
X88654815Y-86849185D01*
X88751506Y-86928537D01*
X88861820Y-86987502D01*
X88981518Y-87023812D01*
X89106000Y-87036072D01*
X89820250Y-87033000D01*
X89979000Y-86874250D01*
X89979000Y-85725000D01*
X90233000Y-85725000D01*
X90233000Y-86874250D01*
X90391750Y-87033000D01*
X91106000Y-87036072D01*
X91230482Y-87023812D01*
X91350180Y-86987502D01*
X91460494Y-86928537D01*
X91557185Y-86849185D01*
X91636537Y-86752494D01*
X91695502Y-86642180D01*
X91731812Y-86522482D01*
X91744072Y-86398000D01*
X91741000Y-85883750D01*
X91582250Y-85725000D01*
X90233000Y-85725000D01*
X89979000Y-85725000D01*
X88629750Y-85725000D01*
X88471000Y-85883750D01*
X88467928Y-86398000D01*
X87744072Y-86398000D01*
X87744072Y-84798000D01*
X88467928Y-84798000D01*
X88471000Y-85312250D01*
X88629750Y-85471000D01*
X89979000Y-85471000D01*
X89979000Y-84321750D01*
X90233000Y-84321750D01*
X90233000Y-85471000D01*
X91582250Y-85471000D01*
X91741000Y-85312250D01*
X91744072Y-84798000D01*
X91731812Y-84673518D01*
X91695502Y-84553820D01*
X91636537Y-84443506D01*
X91557185Y-84346815D01*
X91460494Y-84267463D01*
X91350180Y-84208498D01*
X91230482Y-84172188D01*
X91106000Y-84159928D01*
X90391750Y-84163000D01*
X90233000Y-84321750D01*
X89979000Y-84321750D01*
X89820250Y-84163000D01*
X89106000Y-84159928D01*
X88981518Y-84172188D01*
X88861820Y-84208498D01*
X88751506Y-84267463D01*
X88654815Y-84346815D01*
X88575463Y-84443506D01*
X88516498Y-84553820D01*
X88480188Y-84673518D01*
X88467928Y-84798000D01*
X87744072Y-84798000D01*
X87731812Y-84673518D01*
X87695502Y-84553820D01*
X87636537Y-84443506D01*
X87557185Y-84346815D01*
X87460494Y-84267463D01*
X87413327Y-84242251D01*
X88636514Y-83019065D01*
X88662059Y-83005411D01*
X88796817Y-82894817D01*
X88811692Y-82876692D01*
X88829817Y-82861817D01*
X88940411Y-82727059D01*
X89022589Y-82573313D01*
X89073195Y-82406490D01*
X89086000Y-82276477D01*
X89086000Y-82276467D01*
X89090281Y-82233001D01*
X89086000Y-82189534D01*
X89086000Y-81699000D01*
X89547928Y-81699000D01*
X89560188Y-81823482D01*
X89596498Y-81943180D01*
X89655463Y-82053494D01*
X89734815Y-82150185D01*
X89831506Y-82229537D01*
X89941820Y-82288502D01*
X90061518Y-82324812D01*
X90186000Y-82337072D01*
X90900250Y-82334000D01*
X91059000Y-82175250D01*
X91059000Y-81026000D01*
X91313000Y-81026000D01*
X91313000Y-82175250D01*
X91471750Y-82334000D01*
X92186000Y-82337072D01*
X92310482Y-82324812D01*
X92430180Y-82288502D01*
X92540494Y-82229537D01*
X92637185Y-82150185D01*
X92716537Y-82053494D01*
X92775502Y-81943180D01*
X92811812Y-81823482D01*
X92824072Y-81699000D01*
X92821000Y-81184750D01*
X92662250Y-81026000D01*
X91313000Y-81026000D01*
X91059000Y-81026000D01*
X89709750Y-81026000D01*
X89551000Y-81184750D01*
X89547928Y-81699000D01*
X89086000Y-81699000D01*
X89086000Y-80099000D01*
X89547928Y-80099000D01*
X89551000Y-80613250D01*
X89709750Y-80772000D01*
X91059000Y-80772000D01*
X91059000Y-79622750D01*
X91313000Y-79622750D01*
X91313000Y-80772000D01*
X92662250Y-80772000D01*
X92821000Y-80613250D01*
X92824072Y-80099000D01*
X93547928Y-80099000D01*
X93547928Y-81699000D01*
X93560188Y-81823482D01*
X93596498Y-81943180D01*
X93655463Y-82053494D01*
X93734815Y-82150185D01*
X93831506Y-82229537D01*
X93941820Y-82288502D01*
X94061518Y-82324812D01*
X94186000Y-82337072D01*
X96186000Y-82337072D01*
X96310482Y-82324812D01*
X96430180Y-82288502D01*
X96540494Y-82229537D01*
X96637185Y-82150185D01*
X96659011Y-82123590D01*
X97032000Y-82496579D01*
X97032001Y-84170545D01*
X96999795Y-84218744D01*
X96921774Y-84407102D01*
X96882000Y-84607061D01*
X96882000Y-84810939D01*
X96921774Y-85010898D01*
X96999795Y-85199256D01*
X97113063Y-85368774D01*
X97257226Y-85512937D01*
X97426744Y-85626205D01*
X97615102Y-85704226D01*
X97815061Y-85744000D01*
X98018939Y-85744000D01*
X98218898Y-85704226D01*
X98407256Y-85626205D01*
X98576774Y-85512937D01*
X98720937Y-85368774D01*
X98834205Y-85199256D01*
X98912226Y-85010898D01*
X98952000Y-84810939D01*
X98952000Y-84607061D01*
X98912226Y-84407102D01*
X98834205Y-84218744D01*
X98802000Y-84170546D01*
X98802000Y-82288413D01*
X130235192Y-82288413D01*
X130330956Y-82552814D01*
X130620571Y-82693704D01*
X130932108Y-82775384D01*
X131253595Y-82794718D01*
X131572675Y-82750961D01*
X131877088Y-82645795D01*
X132051044Y-82552814D01*
X132146808Y-82288413D01*
X131191000Y-81332605D01*
X130235192Y-82288413D01*
X98802000Y-82288413D01*
X98802000Y-82085477D01*
X98806282Y-82042000D01*
X98802000Y-81998523D01*
X98802000Y-81215595D01*
X129549282Y-81215595D01*
X129593039Y-81534675D01*
X129698205Y-81839088D01*
X129791186Y-82013044D01*
X130055587Y-82108808D01*
X131011395Y-81153000D01*
X131370605Y-81153000D01*
X132326413Y-82108808D01*
X132590814Y-82013044D01*
X132731704Y-81723429D01*
X132813384Y-81411892D01*
X132832718Y-81090405D01*
X132788961Y-80771325D01*
X132683795Y-80466912D01*
X132590814Y-80292956D01*
X132326413Y-80197192D01*
X131370605Y-81153000D01*
X131011395Y-81153000D01*
X130055587Y-80197192D01*
X129791186Y-80292956D01*
X129650296Y-80582571D01*
X129568616Y-80894108D01*
X129549282Y-81215595D01*
X98802000Y-81215595D01*
X98802000Y-79281454D01*
X98834205Y-79233256D01*
X98912226Y-79044898D01*
X98952000Y-78844939D01*
X98952000Y-78641061D01*
X98912226Y-78441102D01*
X98834205Y-78252744D01*
X98720937Y-78083226D01*
X98576774Y-77939063D01*
X98407256Y-77825795D01*
X98218898Y-77747774D01*
X98018939Y-77708000D01*
X97815061Y-77708000D01*
X97615102Y-77747774D01*
X97426744Y-77825795D01*
X97257226Y-77939063D01*
X97113063Y-78083226D01*
X96999795Y-78252744D01*
X96921774Y-78441102D01*
X96882000Y-78641061D01*
X96882000Y-78844939D01*
X96921774Y-79044898D01*
X96999795Y-79233256D01*
X97032000Y-79281455D01*
X97032000Y-80080451D01*
X97026313Y-80077411D01*
X96859490Y-80026805D01*
X96816545Y-80022575D01*
X96811812Y-79974518D01*
X96775502Y-79854820D01*
X96716537Y-79744506D01*
X96637185Y-79647815D01*
X96540494Y-79568463D01*
X96430180Y-79509498D01*
X96310482Y-79473188D01*
X96186000Y-79460928D01*
X94186000Y-79460928D01*
X94061518Y-79473188D01*
X93941820Y-79509498D01*
X93831506Y-79568463D01*
X93734815Y-79647815D01*
X93655463Y-79744506D01*
X93596498Y-79854820D01*
X93560188Y-79974518D01*
X93547928Y-80099000D01*
X92824072Y-80099000D01*
X92811812Y-79974518D01*
X92775502Y-79854820D01*
X92716537Y-79744506D01*
X92637185Y-79647815D01*
X92540494Y-79568463D01*
X92430180Y-79509498D01*
X92310482Y-79473188D01*
X92186000Y-79460928D01*
X91471750Y-79464000D01*
X91313000Y-79622750D01*
X91059000Y-79622750D01*
X90900250Y-79464000D01*
X90186000Y-79460928D01*
X90061518Y-79473188D01*
X89941820Y-79509498D01*
X89831506Y-79568463D01*
X89734815Y-79647815D01*
X89655463Y-79744506D01*
X89596498Y-79854820D01*
X89560188Y-79974518D01*
X89547928Y-80099000D01*
X89086000Y-80099000D01*
X89086000Y-79416072D01*
X89201000Y-79416072D01*
X89325482Y-79403812D01*
X89445180Y-79367502D01*
X89555494Y-79308537D01*
X89652185Y-79229185D01*
X89731537Y-79132494D01*
X89790502Y-79022180D01*
X89826812Y-78902482D01*
X89839072Y-78778000D01*
X89839072Y-77178000D01*
X89826812Y-77053518D01*
X89790502Y-76933820D01*
X89731537Y-76823506D01*
X89652185Y-76726815D01*
X89555494Y-76647463D01*
X89445180Y-76588498D01*
X89325482Y-76552188D01*
X89201000Y-76539928D01*
X89076683Y-76539928D01*
X89073195Y-76504510D01*
X89023000Y-76339042D01*
X89023000Y-76103454D01*
X89055205Y-76055256D01*
X89133226Y-75866898D01*
X89173000Y-75666939D01*
X89173000Y-75614885D01*
X116910557Y-75614885D01*
X116953178Y-75782324D01*
X117098483Y-76106985D01*
X117304334Y-76397060D01*
X117562821Y-76641402D01*
X117864010Y-76830621D01*
X118196327Y-76957445D01*
X118547000Y-77017000D01*
X118872000Y-77017000D01*
X118872000Y-75334000D01*
X119126000Y-75334000D01*
X119126000Y-77017000D01*
X119451000Y-77017000D01*
X119801673Y-76957445D01*
X120133990Y-76830621D01*
X120435179Y-76641402D01*
X120693666Y-76397060D01*
X120899517Y-76106985D01*
X121044822Y-75782324D01*
X121087443Y-75614885D01*
X120970359Y-75334000D01*
X119126000Y-75334000D01*
X118872000Y-75334000D01*
X117027641Y-75334000D01*
X116910557Y-75614885D01*
X89173000Y-75614885D01*
X89173000Y-75463061D01*
X89133226Y-75263102D01*
X89055205Y-75074744D01*
X88941937Y-74905226D01*
X88835826Y-74799115D01*
X116910557Y-74799115D01*
X117027641Y-75080000D01*
X118872000Y-75080000D01*
X118872000Y-73397000D01*
X119126000Y-73397000D01*
X119126000Y-75080000D01*
X120970359Y-75080000D01*
X120973276Y-75073000D01*
X129552928Y-75073000D01*
X129552928Y-77073000D01*
X129565188Y-77197482D01*
X129601498Y-77317180D01*
X129660463Y-77427494D01*
X129739815Y-77524185D01*
X129836506Y-77603537D01*
X129882630Y-77628191D01*
X129742082Y-77838537D01*
X129618832Y-78136088D01*
X129556000Y-78451967D01*
X129556000Y-78774033D01*
X129618832Y-79089912D01*
X129742082Y-79387463D01*
X129921013Y-79655252D01*
X130148748Y-79882987D01*
X130257600Y-79955720D01*
X130235192Y-80017587D01*
X131191000Y-80973395D01*
X132146808Y-80017587D01*
X132124400Y-79955720D01*
X132233252Y-79882987D01*
X132460987Y-79655252D01*
X132639918Y-79387463D01*
X132763168Y-79089912D01*
X132826000Y-78774033D01*
X132826000Y-78451967D01*
X132763168Y-78136088D01*
X132639918Y-77838537D01*
X132499370Y-77628191D01*
X132545494Y-77603537D01*
X132642185Y-77524185D01*
X132721537Y-77427494D01*
X132780502Y-77317180D01*
X132816812Y-77197482D01*
X132829072Y-77073000D01*
X132829072Y-75073000D01*
X132816812Y-74948518D01*
X132780502Y-74828820D01*
X132721537Y-74718506D01*
X132642185Y-74621815D01*
X132545494Y-74542463D01*
X132435180Y-74483498D01*
X132315482Y-74447188D01*
X132191000Y-74434928D01*
X130191000Y-74434928D01*
X130066518Y-74447188D01*
X129946820Y-74483498D01*
X129836506Y-74542463D01*
X129739815Y-74621815D01*
X129660463Y-74718506D01*
X129601498Y-74828820D01*
X129565188Y-74948518D01*
X129552928Y-75073000D01*
X120973276Y-75073000D01*
X121087443Y-74799115D01*
X121044822Y-74631676D01*
X120899517Y-74307015D01*
X120693666Y-74016940D01*
X120435179Y-73772598D01*
X120133990Y-73583379D01*
X119801673Y-73456555D01*
X119451000Y-73397000D01*
X119126000Y-73397000D01*
X118872000Y-73397000D01*
X118547000Y-73397000D01*
X118196327Y-73456555D01*
X117864010Y-73583379D01*
X117562821Y-73772598D01*
X117304334Y-74016940D01*
X117098483Y-74307015D01*
X116953178Y-74631676D01*
X116910557Y-74799115D01*
X88835826Y-74799115D01*
X88797774Y-74761063D01*
X88628256Y-74647795D01*
X88439898Y-74569774D01*
X88239939Y-74530000D01*
X88036061Y-74530000D01*
X87836102Y-74569774D01*
X87647744Y-74647795D01*
X87478226Y-74761063D01*
X87334063Y-74905226D01*
X87220795Y-75074744D01*
X87142774Y-75263102D01*
X87103000Y-75463061D01*
X87103000Y-75666939D01*
X87142774Y-75866898D01*
X87220795Y-76055256D01*
X87253000Y-76103455D01*
X87253000Y-76539928D01*
X87201000Y-76539928D01*
X87076518Y-76552188D01*
X86956820Y-76588498D01*
X86846506Y-76647463D01*
X86749815Y-76726815D01*
X86670463Y-76823506D01*
X86611498Y-76933820D01*
X86575188Y-77053518D01*
X86562928Y-77178000D01*
X86562928Y-78778000D01*
X86575188Y-78902482D01*
X86611498Y-79022180D01*
X86670463Y-79132494D01*
X86749815Y-79229185D01*
X86846506Y-79308537D01*
X86956820Y-79367502D01*
X87076518Y-79403812D01*
X87201000Y-79416072D01*
X87316001Y-79416072D01*
X87316000Y-81836421D01*
X85510951Y-83641471D01*
X85477184Y-83669183D01*
X85449471Y-83702951D01*
X85449468Y-83702954D01*
X85366590Y-83803941D01*
X85284412Y-83957687D01*
X85233805Y-84124510D01*
X85230317Y-84159928D01*
X85106000Y-84159928D01*
X84981518Y-84172188D01*
X84861820Y-84208498D01*
X84751506Y-84267463D01*
X84654815Y-84346815D01*
X84575463Y-84443506D01*
X84516498Y-84553820D01*
X84480188Y-84673518D01*
X84467928Y-84798000D01*
X84467928Y-86398000D01*
X84480188Y-86522482D01*
X84516498Y-86642180D01*
X84575463Y-86752494D01*
X84654815Y-86849185D01*
X84751506Y-86928537D01*
X84861820Y-86987502D01*
X84981518Y-87023812D01*
X85106000Y-87036072D01*
X85221000Y-87036072D01*
X85221000Y-87810531D01*
X85216719Y-87854000D01*
X85221000Y-87897469D01*
X85221000Y-87897476D01*
X85230433Y-87993256D01*
X85233805Y-88027490D01*
X85249157Y-88078096D01*
X85284411Y-88194312D01*
X85366589Y-88348058D01*
X85477183Y-88482817D01*
X85510956Y-88510534D01*
X86449673Y-89449251D01*
X86402506Y-89474463D01*
X86305815Y-89553815D01*
X86226463Y-89650506D01*
X86167498Y-89760820D01*
X86131188Y-89880518D01*
X86118928Y-90005000D01*
X86118928Y-91605000D01*
X86131188Y-91729482D01*
X86167498Y-91849180D01*
X86226463Y-91959494D01*
X86305815Y-92056185D01*
X86402506Y-92135537D01*
X86512820Y-92194502D01*
X86632518Y-92230812D01*
X86757000Y-92243072D01*
X86872001Y-92243072D01*
X86872001Y-93472000D01*
X83004461Y-93472000D01*
X82959205Y-93362744D01*
X82845937Y-93193226D01*
X82701774Y-93049063D01*
X82532256Y-92935795D01*
X82343898Y-92857774D01*
X82143939Y-92818000D01*
X82081801Y-92818000D01*
X82040000Y-92776199D01*
X82040000Y-91605000D01*
X82118928Y-91605000D01*
X82131188Y-91729482D01*
X82167498Y-91849180D01*
X82226463Y-91959494D01*
X82305815Y-92056185D01*
X82402506Y-92135537D01*
X82512820Y-92194502D01*
X82632518Y-92230812D01*
X82757000Y-92243072D01*
X83471250Y-92240000D01*
X83630000Y-92081250D01*
X83630000Y-90932000D01*
X83884000Y-90932000D01*
X83884000Y-92081250D01*
X84042750Y-92240000D01*
X84757000Y-92243072D01*
X84881482Y-92230812D01*
X85001180Y-92194502D01*
X85111494Y-92135537D01*
X85208185Y-92056185D01*
X85287537Y-91959494D01*
X85346502Y-91849180D01*
X85382812Y-91729482D01*
X85395072Y-91605000D01*
X85392000Y-91090750D01*
X85233250Y-90932000D01*
X83884000Y-90932000D01*
X83630000Y-90932000D01*
X82280750Y-90932000D01*
X82122000Y-91090750D01*
X82118928Y-91605000D01*
X82040000Y-91605000D01*
X82040000Y-90080325D01*
X82043676Y-90043000D01*
X82040000Y-90005675D01*
X82040000Y-90005667D01*
X82039935Y-90005000D01*
X82118928Y-90005000D01*
X82122000Y-90519250D01*
X82280750Y-90678000D01*
X83630000Y-90678000D01*
X83630000Y-89528750D01*
X83884000Y-89528750D01*
X83884000Y-90678000D01*
X85233250Y-90678000D01*
X85392000Y-90519250D01*
X85395072Y-90005000D01*
X85382812Y-89880518D01*
X85346502Y-89760820D01*
X85287537Y-89650506D01*
X85208185Y-89553815D01*
X85111494Y-89474463D01*
X85001180Y-89415498D01*
X84881482Y-89379188D01*
X84757000Y-89366928D01*
X84042750Y-89370000D01*
X83884000Y-89528750D01*
X83630000Y-89528750D01*
X83471250Y-89370000D01*
X82757000Y-89366928D01*
X82632518Y-89379188D01*
X82512820Y-89415498D01*
X82402506Y-89474463D01*
X82305815Y-89553815D01*
X82226463Y-89650506D01*
X82167498Y-89760820D01*
X82131188Y-89880518D01*
X82118928Y-90005000D01*
X82039935Y-90005000D01*
X82029003Y-89894014D01*
X81985546Y-89750753D01*
X81914974Y-89618724D01*
X81820001Y-89502999D01*
X81791003Y-89479201D01*
X79775000Y-87463199D01*
X79775000Y-87401061D01*
X79735226Y-87201102D01*
X79657205Y-87012744D01*
X79543937Y-86843226D01*
X79399774Y-86699063D01*
X79230256Y-86585795D01*
X79041898Y-86507774D01*
X78841939Y-86468000D01*
X78638061Y-86468000D01*
X78438102Y-86507774D01*
X78249744Y-86585795D01*
X78207532Y-86614000D01*
X77573845Y-86614000D01*
X77597000Y-86497592D01*
X77597000Y-86222408D01*
X77543314Y-85952510D01*
X77438005Y-85698273D01*
X77285120Y-85469465D01*
X77090535Y-85274880D01*
X77002535Y-85216080D01*
X77086482Y-85207812D01*
X77206180Y-85171502D01*
X77316494Y-85112537D01*
X77413185Y-85033185D01*
X77492537Y-84936494D01*
X77551502Y-84826180D01*
X77587812Y-84706482D01*
X77600072Y-84582000D01*
X77600072Y-83058000D01*
X77587812Y-82933518D01*
X77551502Y-82813820D01*
X77492537Y-82703506D01*
X77413185Y-82606815D01*
X77316494Y-82527463D01*
X77206180Y-82468498D01*
X77086482Y-82432188D01*
X76962000Y-82419928D01*
X75438000Y-82419928D01*
X75313518Y-82432188D01*
X75193820Y-82468498D01*
X75083506Y-82527463D01*
X74986815Y-82606815D01*
X74907463Y-82703506D01*
X74848498Y-82813820D01*
X74812188Y-82933518D01*
X74803920Y-83017465D01*
X74745120Y-82929465D01*
X74550535Y-82734880D01*
X74321727Y-82581995D01*
X74067490Y-82476686D01*
X73797592Y-82423000D01*
X73522408Y-82423000D01*
X73252510Y-82476686D01*
X72998273Y-82581995D01*
X72769465Y-82734880D01*
X72574880Y-82929465D01*
X72421995Y-83158273D01*
X72316686Y-83412510D01*
X72263000Y-83682408D01*
X72263000Y-83957592D01*
X72316686Y-84227490D01*
X72421995Y-84481727D01*
X72574880Y-84710535D01*
X72769465Y-84905120D01*
X72998273Y-85058005D01*
X73075515Y-85090000D01*
X72998273Y-85121995D01*
X72769465Y-85274880D01*
X72574880Y-85469465D01*
X72421995Y-85698273D01*
X72316686Y-85952510D01*
X72263000Y-86222408D01*
X72263000Y-86497592D01*
X72316686Y-86767490D01*
X72421995Y-87021727D01*
X72574880Y-87250535D01*
X72769465Y-87445120D01*
X72998273Y-87598005D01*
X73075515Y-87630000D01*
X72998273Y-87661995D01*
X72769465Y-87814880D01*
X72574880Y-88009465D01*
X72421995Y-88238273D01*
X72316686Y-88492510D01*
X72263000Y-88762408D01*
X72263000Y-89037592D01*
X72316686Y-89307490D01*
X72421995Y-89561727D01*
X72574880Y-89790535D01*
X72769465Y-89985120D01*
X72998273Y-90138005D01*
X73075515Y-90170000D01*
X72998273Y-90201995D01*
X72769465Y-90354880D01*
X72574880Y-90549465D01*
X72421995Y-90778273D01*
X72316686Y-91032510D01*
X72263000Y-91302408D01*
X72263000Y-91577592D01*
X72316686Y-91847490D01*
X72421995Y-92101727D01*
X72574880Y-92330535D01*
X72769465Y-92525120D01*
X72998273Y-92678005D01*
X73069943Y-92707692D01*
X73056977Y-92712364D01*
X72941020Y-92774344D01*
X72874040Y-93014435D01*
X73660000Y-93800395D01*
X73674143Y-93786253D01*
X73853748Y-93965858D01*
X73839605Y-93980000D01*
X73853748Y-93994143D01*
X73674143Y-94173748D01*
X73660000Y-94159605D01*
X72874040Y-94945565D01*
X72941020Y-95185656D01*
X73076760Y-95249485D01*
X72998273Y-95281995D01*
X72769465Y-95434880D01*
X72574880Y-95629465D01*
X72421995Y-95858273D01*
X72316686Y-96112510D01*
X72263000Y-96382408D01*
X72263000Y-96657592D01*
X72316686Y-96927490D01*
X72421995Y-97181727D01*
X72574880Y-97410535D01*
X72769465Y-97605120D01*
X72998273Y-97758005D01*
X73252510Y-97863314D01*
X73522408Y-97917000D01*
X73797592Y-97917000D01*
X73804122Y-97915701D01*
X74400470Y-98512049D01*
X74428183Y-98545817D01*
X74461951Y-98573530D01*
X74461953Y-98573532D01*
X74533452Y-98632210D01*
X74562941Y-98656411D01*
X74716687Y-98738589D01*
X74883510Y-98789195D01*
X75013523Y-98802000D01*
X75013533Y-98802000D01*
X75056999Y-98806281D01*
X75100465Y-98802000D01*
X77553533Y-98802000D01*
X77596999Y-98806281D01*
X77640465Y-98802000D01*
X84540299Y-98802000D01*
X84544188Y-98841482D01*
X84580498Y-98961180D01*
X84639463Y-99071494D01*
X84718815Y-99168185D01*
X84741741Y-99187000D01*
X70993000Y-99187000D01*
X70993000Y-94052017D01*
X72258090Y-94052017D01*
X72299078Y-94324133D01*
X72392364Y-94583023D01*
X72454344Y-94698980D01*
X72694435Y-94765960D01*
X73480395Y-93980000D01*
X72694435Y-93194040D01*
X72454344Y-93261020D01*
X72337244Y-93510048D01*
X72270977Y-93777135D01*
X72258090Y-94052017D01*
X70993000Y-94052017D01*
X70993000Y-79908061D01*
X81769000Y-79908061D01*
X81769000Y-80111939D01*
X81808774Y-80311898D01*
X81886795Y-80500256D01*
X82000063Y-80669774D01*
X82044001Y-80713712D01*
X82044000Y-84513289D01*
X82000063Y-84557226D01*
X81886795Y-84726744D01*
X81808774Y-84915102D01*
X81769000Y-85115061D01*
X81769000Y-85318939D01*
X81808774Y-85518898D01*
X81886795Y-85707256D01*
X82000063Y-85876774D01*
X82144226Y-86020937D01*
X82313744Y-86134205D01*
X82502102Y-86212226D01*
X82702061Y-86252000D01*
X82905939Y-86252000D01*
X83105898Y-86212226D01*
X83294256Y-86134205D01*
X83463774Y-86020937D01*
X83607937Y-85876774D01*
X83721205Y-85707256D01*
X83799226Y-85518898D01*
X83839000Y-85318939D01*
X83839000Y-85115061D01*
X83799226Y-84915102D01*
X83721205Y-84726744D01*
X83607937Y-84557226D01*
X83564000Y-84513289D01*
X83564000Y-80713711D01*
X83607937Y-80669774D01*
X83721205Y-80500256D01*
X83799226Y-80311898D01*
X83839000Y-80111939D01*
X83839000Y-79908061D01*
X83799226Y-79708102D01*
X83721205Y-79519744D01*
X83650642Y-79414138D01*
X83915250Y-79413000D01*
X84074000Y-79254250D01*
X84074000Y-78105000D01*
X84328000Y-78105000D01*
X84328000Y-79254250D01*
X84486750Y-79413000D01*
X85201000Y-79416072D01*
X85325482Y-79403812D01*
X85445180Y-79367502D01*
X85555494Y-79308537D01*
X85652185Y-79229185D01*
X85731537Y-79132494D01*
X85790502Y-79022180D01*
X85826812Y-78902482D01*
X85839072Y-78778000D01*
X85836000Y-78263750D01*
X85677250Y-78105000D01*
X84328000Y-78105000D01*
X84074000Y-78105000D01*
X82724750Y-78105000D01*
X82566000Y-78263750D01*
X82562928Y-78778000D01*
X82575188Y-78902482D01*
X82603154Y-78994674D01*
X82502102Y-79014774D01*
X82313744Y-79092795D01*
X82144226Y-79206063D01*
X82000063Y-79350226D01*
X81886795Y-79519744D01*
X81808774Y-79708102D01*
X81769000Y-79908061D01*
X70993000Y-79908061D01*
X70993000Y-77178000D01*
X82562928Y-77178000D01*
X82566000Y-77692250D01*
X82724750Y-77851000D01*
X84074000Y-77851000D01*
X84074000Y-76701750D01*
X84328000Y-76701750D01*
X84328000Y-77851000D01*
X85677250Y-77851000D01*
X85836000Y-77692250D01*
X85839072Y-77178000D01*
X85826812Y-77053518D01*
X85790502Y-76933820D01*
X85731537Y-76823506D01*
X85652185Y-76726815D01*
X85555494Y-76647463D01*
X85445180Y-76588498D01*
X85325482Y-76552188D01*
X85201000Y-76539928D01*
X84486750Y-76543000D01*
X84328000Y-76701750D01*
X84074000Y-76701750D01*
X83915250Y-76543000D01*
X83201000Y-76539928D01*
X83076518Y-76552188D01*
X82956820Y-76588498D01*
X82846506Y-76647463D01*
X82749815Y-76726815D01*
X82670463Y-76823506D01*
X82611498Y-76933820D01*
X82575188Y-77053518D01*
X82562928Y-77178000D01*
X70993000Y-77178000D01*
X70993000Y-70072000D01*
X116860928Y-70072000D01*
X116860928Y-72422000D01*
X116873188Y-72546482D01*
X116909498Y-72666180D01*
X116968463Y-72776494D01*
X117047815Y-72873185D01*
X117144506Y-72952537D01*
X117254820Y-73011502D01*
X117374518Y-73047812D01*
X117499000Y-73060072D01*
X120499000Y-73060072D01*
X120623482Y-73047812D01*
X120743180Y-73011502D01*
X120853494Y-72952537D01*
X120950185Y-72873185D01*
X121029537Y-72776494D01*
X121088502Y-72666180D01*
X121124812Y-72546482D01*
X121137072Y-72422000D01*
X121137072Y-70072000D01*
X121124812Y-69947518D01*
X121088502Y-69827820D01*
X121029537Y-69717506D01*
X120950185Y-69620815D01*
X120853494Y-69541463D01*
X120743180Y-69482498D01*
X120623482Y-69446188D01*
X120499000Y-69433928D01*
X117499000Y-69433928D01*
X117374518Y-69446188D01*
X117254820Y-69482498D01*
X117144506Y-69541463D01*
X117047815Y-69620815D01*
X116968463Y-69717506D01*
X116909498Y-69827820D01*
X116873188Y-69947518D01*
X116860928Y-70072000D01*
X70993000Y-70072000D01*
X70993000Y-63373000D01*
X133477000Y-63373000D01*
X133477000Y-99187000D01*
G36*
X76393748Y-93965858D02*
G01*
X76379605Y-93980000D01*
X76393748Y-93994143D01*
X76214143Y-94173748D01*
X76200000Y-94159605D01*
X76185858Y-94173748D01*
X76006253Y-93994143D01*
X76020395Y-93980000D01*
X76006253Y-93965858D01*
X76185858Y-93786253D01*
X76200000Y-93800395D01*
X76214143Y-93786253D01*
X76393748Y-93965858D01*
X76393748Y-93965858D01*
G37*
X76393748Y-93965858D02*
X76379605Y-93980000D01*
X76393748Y-93994143D01*
X76214143Y-94173748D01*
X76200000Y-94159605D01*
X76185858Y-94173748D01*
X76006253Y-93994143D01*
X76020395Y-93980000D01*
X76006253Y-93965858D01*
X76185858Y-93786253D01*
X76200000Y-93800395D01*
X76214143Y-93786253D01*
X76393748Y-93965858D01*
M02*
