G04 #@! TF.GenerationSoftware,KiCad,Pcbnew,(5.1.2)-2*
G04 #@! TF.CreationDate,2019-07-07T18:05:40+09:00*
G04 #@! TF.ProjectId,PmodICSIF,506d6f64-4943-4534-9946-2e6b69636164,rev?*
G04 #@! TF.SameCoordinates,Original*
G04 #@! TF.FileFunction,Soldermask,Bot*
G04 #@! TF.FilePolarity,Negative*
%FSLAX46Y46*%
G04 Gerber Fmt 4.6, Leading zero omitted, Abs format (unit mm)*
G04 Created by KiCad (PCBNEW (5.1.2)-2) date 2019-07-07 18:05:40*
%MOMM*%
%LPD*%
G04 APERTURE LIST*
%ADD10C,0.100000*%
G04 APERTURE END LIST*
D10*
G36*
X91221000Y-98768000D02*
G01*
X89119000Y-98768000D01*
X89119000Y-97066000D01*
X91221000Y-97066000D01*
X91221000Y-98768000D01*
X91221000Y-98768000D01*
G37*
G36*
X87221000Y-98768000D02*
G01*
X85119000Y-98768000D01*
X85119000Y-97066000D01*
X87221000Y-97066000D01*
X87221000Y-98768000D01*
X87221000Y-98768000D01*
G37*
G36*
X73897142Y-95738242D02*
G01*
X74045101Y-95799529D01*
X74178255Y-95888499D01*
X74291501Y-96001745D01*
X74380471Y-96134899D01*
X74441758Y-96282858D01*
X74473000Y-96439925D01*
X74473000Y-96600075D01*
X74441758Y-96757142D01*
X74380471Y-96905101D01*
X74291501Y-97038255D01*
X74178255Y-97151501D01*
X74045101Y-97240471D01*
X73897142Y-97301758D01*
X73740075Y-97333000D01*
X73579925Y-97333000D01*
X73422858Y-97301758D01*
X73274899Y-97240471D01*
X73141745Y-97151501D01*
X73028499Y-97038255D01*
X72939529Y-96905101D01*
X72878242Y-96757142D01*
X72847000Y-96600075D01*
X72847000Y-96439925D01*
X72878242Y-96282858D01*
X72939529Y-96134899D01*
X73028499Y-96001745D01*
X73141745Y-95888499D01*
X73274899Y-95799529D01*
X73422858Y-95738242D01*
X73579925Y-95707000D01*
X73740075Y-95707000D01*
X73897142Y-95738242D01*
X73897142Y-95738242D01*
G37*
G36*
X76437142Y-95738242D02*
G01*
X76585101Y-95799529D01*
X76718255Y-95888499D01*
X76831501Y-96001745D01*
X76920471Y-96134899D01*
X76981758Y-96282858D01*
X77013000Y-96439925D01*
X77013000Y-96600075D01*
X76981758Y-96757142D01*
X76920471Y-96905101D01*
X76831501Y-97038255D01*
X76718255Y-97151501D01*
X76585101Y-97240471D01*
X76437142Y-97301758D01*
X76280075Y-97333000D01*
X76119925Y-97333000D01*
X75962858Y-97301758D01*
X75814899Y-97240471D01*
X75681745Y-97151501D01*
X75568499Y-97038255D01*
X75479529Y-96905101D01*
X75418242Y-96757142D01*
X75387000Y-96600075D01*
X75387000Y-96439925D01*
X75418242Y-96282858D01*
X75479529Y-96134899D01*
X75568499Y-96001745D01*
X75681745Y-95888499D01*
X75814899Y-95799529D01*
X75962858Y-95738242D01*
X76119925Y-95707000D01*
X76280075Y-95707000D01*
X76437142Y-95738242D01*
X76437142Y-95738242D01*
G37*
G36*
X73897142Y-93198242D02*
G01*
X74045101Y-93259529D01*
X74178255Y-93348499D01*
X74291501Y-93461745D01*
X74380471Y-93594899D01*
X74441758Y-93742858D01*
X74473000Y-93899925D01*
X74473000Y-94060075D01*
X74441758Y-94217142D01*
X74380471Y-94365101D01*
X74291501Y-94498255D01*
X74178255Y-94611501D01*
X74045101Y-94700471D01*
X73897142Y-94761758D01*
X73740075Y-94793000D01*
X73579925Y-94793000D01*
X73422858Y-94761758D01*
X73274899Y-94700471D01*
X73141745Y-94611501D01*
X73028499Y-94498255D01*
X72939529Y-94365101D01*
X72878242Y-94217142D01*
X72847000Y-94060075D01*
X72847000Y-93899925D01*
X72878242Y-93742858D01*
X72939529Y-93594899D01*
X73028499Y-93461745D01*
X73141745Y-93348499D01*
X73274899Y-93259529D01*
X73422858Y-93198242D01*
X73579925Y-93167000D01*
X73740075Y-93167000D01*
X73897142Y-93198242D01*
X73897142Y-93198242D01*
G37*
G36*
X76437142Y-93198242D02*
G01*
X76585101Y-93259529D01*
X76718255Y-93348499D01*
X76831501Y-93461745D01*
X76920471Y-93594899D01*
X76981758Y-93742858D01*
X77013000Y-93899925D01*
X77013000Y-94060075D01*
X76981758Y-94217142D01*
X76920471Y-94365101D01*
X76831501Y-94498255D01*
X76718255Y-94611501D01*
X76585101Y-94700471D01*
X76437142Y-94761758D01*
X76280075Y-94793000D01*
X76119925Y-94793000D01*
X75962858Y-94761758D01*
X75814899Y-94700471D01*
X75681745Y-94611501D01*
X75568499Y-94498255D01*
X75479529Y-94365101D01*
X75418242Y-94217142D01*
X75387000Y-94060075D01*
X75387000Y-93899925D01*
X75418242Y-93742858D01*
X75479529Y-93594899D01*
X75568499Y-93461745D01*
X75681745Y-93348499D01*
X75814899Y-93259529D01*
X75962858Y-93198242D01*
X76119925Y-93167000D01*
X76280075Y-93167000D01*
X76437142Y-93198242D01*
X76437142Y-93198242D01*
G37*
G36*
X131497564Y-92334389D02*
G01*
X131688833Y-92413615D01*
X131688835Y-92413616D01*
X131860973Y-92528635D01*
X132007365Y-92675027D01*
X132122385Y-92847167D01*
X132201611Y-93038436D01*
X132242000Y-93241484D01*
X132242000Y-93448516D01*
X132201611Y-93651564D01*
X132163796Y-93742857D01*
X132122384Y-93842835D01*
X132007365Y-94014973D01*
X131860973Y-94161365D01*
X131688835Y-94276384D01*
X131688834Y-94276385D01*
X131688833Y-94276385D01*
X131497564Y-94355611D01*
X131294516Y-94396000D01*
X131087484Y-94396000D01*
X130884436Y-94355611D01*
X130693167Y-94276385D01*
X130693166Y-94276385D01*
X130693165Y-94276384D01*
X130521027Y-94161365D01*
X130374635Y-94014973D01*
X130259616Y-93842835D01*
X130218204Y-93742857D01*
X130180389Y-93651564D01*
X130140000Y-93448516D01*
X130140000Y-93241484D01*
X130180389Y-93038436D01*
X130259615Y-92847167D01*
X130374635Y-92675027D01*
X130521027Y-92528635D01*
X130693165Y-92413616D01*
X130693167Y-92413615D01*
X130884436Y-92334389D01*
X131087484Y-92294000D01*
X131294516Y-92294000D01*
X131497564Y-92334389D01*
X131497564Y-92334389D01*
G37*
G36*
X96174000Y-94323000D02*
G01*
X94072000Y-94323000D01*
X94072000Y-92621000D01*
X96174000Y-92621000D01*
X96174000Y-94323000D01*
X96174000Y-94323000D01*
G37*
G36*
X92174000Y-94323000D02*
G01*
X90072000Y-94323000D01*
X90072000Y-92621000D01*
X92174000Y-92621000D01*
X92174000Y-94323000D01*
X92174000Y-94323000D01*
G37*
G36*
X76437142Y-90658242D02*
G01*
X76585101Y-90719529D01*
X76718255Y-90808499D01*
X76831501Y-90921745D01*
X76920471Y-91054899D01*
X76981758Y-91202858D01*
X77013000Y-91359925D01*
X77013000Y-91520075D01*
X76981758Y-91677142D01*
X76920471Y-91825101D01*
X76831501Y-91958255D01*
X76718255Y-92071501D01*
X76585101Y-92160471D01*
X76437142Y-92221758D01*
X76280075Y-92253000D01*
X76119925Y-92253000D01*
X75962858Y-92221758D01*
X75814899Y-92160471D01*
X75681745Y-92071501D01*
X75568499Y-91958255D01*
X75479529Y-91825101D01*
X75418242Y-91677142D01*
X75387000Y-91520075D01*
X75387000Y-91359925D01*
X75418242Y-91202858D01*
X75479529Y-91054899D01*
X75568499Y-90921745D01*
X75681745Y-90808499D01*
X75814899Y-90719529D01*
X75962858Y-90658242D01*
X76119925Y-90627000D01*
X76280075Y-90627000D01*
X76437142Y-90658242D01*
X76437142Y-90658242D01*
G37*
G36*
X73897142Y-90658242D02*
G01*
X74045101Y-90719529D01*
X74178255Y-90808499D01*
X74291501Y-90921745D01*
X74380471Y-91054899D01*
X74441758Y-91202858D01*
X74473000Y-91359925D01*
X74473000Y-91520075D01*
X74441758Y-91677142D01*
X74380471Y-91825101D01*
X74291501Y-91958255D01*
X74178255Y-92071501D01*
X74045101Y-92160471D01*
X73897142Y-92221758D01*
X73740075Y-92253000D01*
X73579925Y-92253000D01*
X73422858Y-92221758D01*
X73274899Y-92160471D01*
X73141745Y-92071501D01*
X73028499Y-91958255D01*
X72939529Y-91825101D01*
X72878242Y-91677142D01*
X72847000Y-91520075D01*
X72847000Y-91359925D01*
X72878242Y-91202858D01*
X72939529Y-91054899D01*
X73028499Y-90921745D01*
X73141745Y-90808499D01*
X73274899Y-90719529D01*
X73422858Y-90658242D01*
X73579925Y-90627000D01*
X73740075Y-90627000D01*
X73897142Y-90658242D01*
X73897142Y-90658242D01*
G37*
G36*
X131497564Y-89794389D02*
G01*
X131688833Y-89873615D01*
X131688835Y-89873616D01*
X131809138Y-89954000D01*
X131860973Y-89988635D01*
X132007365Y-90135027D01*
X132122385Y-90307167D01*
X132201611Y-90498436D01*
X132242000Y-90701484D01*
X132242000Y-90908516D01*
X132201611Y-91111564D01*
X132163796Y-91202857D01*
X132122384Y-91302835D01*
X132007365Y-91474973D01*
X131860973Y-91621365D01*
X131688835Y-91736384D01*
X131688834Y-91736385D01*
X131688833Y-91736385D01*
X131497564Y-91815611D01*
X131294516Y-91856000D01*
X131087484Y-91856000D01*
X130884436Y-91815611D01*
X130693167Y-91736385D01*
X130693166Y-91736385D01*
X130693165Y-91736384D01*
X130521027Y-91621365D01*
X130374635Y-91474973D01*
X130259616Y-91302835D01*
X130218204Y-91202857D01*
X130180389Y-91111564D01*
X130140000Y-90908516D01*
X130140000Y-90701484D01*
X130180389Y-90498436D01*
X130259615Y-90307167D01*
X130374635Y-90135027D01*
X130521027Y-89988635D01*
X130572862Y-89954000D01*
X130693165Y-89873616D01*
X130693167Y-89873615D01*
X130884436Y-89794389D01*
X131087484Y-89754000D01*
X131294516Y-89754000D01*
X131497564Y-89794389D01*
X131497564Y-89794389D01*
G37*
G36*
X88808000Y-91656000D02*
G01*
X86706000Y-91656000D01*
X86706000Y-89954000D01*
X88808000Y-89954000D01*
X88808000Y-91656000D01*
X88808000Y-91656000D01*
G37*
G36*
X84808000Y-91656000D02*
G01*
X82706000Y-91656000D01*
X82706000Y-89954000D01*
X84808000Y-89954000D01*
X84808000Y-91656000D01*
X84808000Y-91656000D01*
G37*
G36*
X76437142Y-88118242D02*
G01*
X76585101Y-88179529D01*
X76718255Y-88268499D01*
X76831501Y-88381745D01*
X76920471Y-88514899D01*
X76981758Y-88662858D01*
X77013000Y-88819925D01*
X77013000Y-88980075D01*
X76981758Y-89137142D01*
X76920471Y-89285101D01*
X76831501Y-89418255D01*
X76718255Y-89531501D01*
X76585101Y-89620471D01*
X76437142Y-89681758D01*
X76280075Y-89713000D01*
X76119925Y-89713000D01*
X75962858Y-89681758D01*
X75814899Y-89620471D01*
X75681745Y-89531501D01*
X75568499Y-89418255D01*
X75479529Y-89285101D01*
X75418242Y-89137142D01*
X75387000Y-88980075D01*
X75387000Y-88819925D01*
X75418242Y-88662858D01*
X75479529Y-88514899D01*
X75568499Y-88381745D01*
X75681745Y-88268499D01*
X75814899Y-88179529D01*
X75962858Y-88118242D01*
X76119925Y-88087000D01*
X76280075Y-88087000D01*
X76437142Y-88118242D01*
X76437142Y-88118242D01*
G37*
G36*
X73897142Y-88118242D02*
G01*
X74045101Y-88179529D01*
X74178255Y-88268499D01*
X74291501Y-88381745D01*
X74380471Y-88514899D01*
X74441758Y-88662858D01*
X74473000Y-88819925D01*
X74473000Y-88980075D01*
X74441758Y-89137142D01*
X74380471Y-89285101D01*
X74291501Y-89418255D01*
X74178255Y-89531501D01*
X74045101Y-89620471D01*
X73897142Y-89681758D01*
X73740075Y-89713000D01*
X73579925Y-89713000D01*
X73422858Y-89681758D01*
X73274899Y-89620471D01*
X73141745Y-89531501D01*
X73028499Y-89418255D01*
X72939529Y-89285101D01*
X72878242Y-89137142D01*
X72847000Y-88980075D01*
X72847000Y-88819925D01*
X72878242Y-88662858D01*
X72939529Y-88514899D01*
X73028499Y-88381745D01*
X73141745Y-88268499D01*
X73274899Y-88179529D01*
X73422858Y-88118242D01*
X73579925Y-88087000D01*
X73740075Y-88087000D01*
X73897142Y-88118242D01*
X73897142Y-88118242D01*
G37*
G36*
X132242000Y-89316000D02*
G01*
X130140000Y-89316000D01*
X130140000Y-87214000D01*
X132242000Y-87214000D01*
X132242000Y-89316000D01*
X132242000Y-89316000D01*
G37*
G36*
X73897142Y-85578242D02*
G01*
X74045101Y-85639529D01*
X74178255Y-85728499D01*
X74291501Y-85841745D01*
X74380471Y-85974899D01*
X74441758Y-86122858D01*
X74473000Y-86279925D01*
X74473000Y-86440075D01*
X74441758Y-86597142D01*
X74380471Y-86745101D01*
X74291501Y-86878255D01*
X74178255Y-86991501D01*
X74045101Y-87080471D01*
X73897142Y-87141758D01*
X73740075Y-87173000D01*
X73579925Y-87173000D01*
X73422858Y-87141758D01*
X73274899Y-87080471D01*
X73141745Y-86991501D01*
X73028499Y-86878255D01*
X72939529Y-86745101D01*
X72878242Y-86597142D01*
X72847000Y-86440075D01*
X72847000Y-86279925D01*
X72878242Y-86122858D01*
X72939529Y-85974899D01*
X73028499Y-85841745D01*
X73141745Y-85728499D01*
X73274899Y-85639529D01*
X73422858Y-85578242D01*
X73579925Y-85547000D01*
X73740075Y-85547000D01*
X73897142Y-85578242D01*
X73897142Y-85578242D01*
G37*
G36*
X76437142Y-85578242D02*
G01*
X76585101Y-85639529D01*
X76718255Y-85728499D01*
X76831501Y-85841745D01*
X76920471Y-85974899D01*
X76981758Y-86122858D01*
X77013000Y-86279925D01*
X77013000Y-86440075D01*
X76981758Y-86597142D01*
X76920471Y-86745101D01*
X76831501Y-86878255D01*
X76718255Y-86991501D01*
X76585101Y-87080471D01*
X76437142Y-87141758D01*
X76280075Y-87173000D01*
X76119925Y-87173000D01*
X75962858Y-87141758D01*
X75814899Y-87080471D01*
X75681745Y-86991501D01*
X75568499Y-86878255D01*
X75479529Y-86745101D01*
X75418242Y-86597142D01*
X75387000Y-86440075D01*
X75387000Y-86279925D01*
X75418242Y-86122858D01*
X75479529Y-85974899D01*
X75568499Y-85841745D01*
X75681745Y-85728499D01*
X75814899Y-85639529D01*
X75962858Y-85578242D01*
X76119925Y-85547000D01*
X76280075Y-85547000D01*
X76437142Y-85578242D01*
X76437142Y-85578242D01*
G37*
G36*
X91157000Y-86449000D02*
G01*
X89055000Y-86449000D01*
X89055000Y-84747000D01*
X91157000Y-84747000D01*
X91157000Y-86449000D01*
X91157000Y-86449000D01*
G37*
G36*
X87157000Y-86449000D02*
G01*
X85055000Y-86449000D01*
X85055000Y-84747000D01*
X87157000Y-84747000D01*
X87157000Y-86449000D01*
X87157000Y-86449000D01*
G37*
G36*
X73897142Y-83038242D02*
G01*
X74045101Y-83099529D01*
X74178255Y-83188499D01*
X74291501Y-83301745D01*
X74380471Y-83434899D01*
X74441758Y-83582858D01*
X74473000Y-83739925D01*
X74473000Y-83900075D01*
X74441758Y-84057142D01*
X74380471Y-84205101D01*
X74291501Y-84338255D01*
X74178255Y-84451501D01*
X74045101Y-84540471D01*
X73897142Y-84601758D01*
X73740075Y-84633000D01*
X73579925Y-84633000D01*
X73422858Y-84601758D01*
X73274899Y-84540471D01*
X73141745Y-84451501D01*
X73028499Y-84338255D01*
X72939529Y-84205101D01*
X72878242Y-84057142D01*
X72847000Y-83900075D01*
X72847000Y-83739925D01*
X72878242Y-83582858D01*
X72939529Y-83434899D01*
X73028499Y-83301745D01*
X73141745Y-83188499D01*
X73274899Y-83099529D01*
X73422858Y-83038242D01*
X73579925Y-83007000D01*
X73740075Y-83007000D01*
X73897142Y-83038242D01*
X73897142Y-83038242D01*
G37*
G36*
X77013000Y-84633000D02*
G01*
X75387000Y-84633000D01*
X75387000Y-83007000D01*
X77013000Y-83007000D01*
X77013000Y-84633000D01*
X77013000Y-84633000D01*
G37*
G36*
X131497564Y-80142389D02*
G01*
X131688833Y-80221615D01*
X131688835Y-80221616D01*
X131860973Y-80336635D01*
X132007365Y-80483027D01*
X132122385Y-80655167D01*
X132201611Y-80846436D01*
X132242000Y-81049484D01*
X132242000Y-81256516D01*
X132201611Y-81459564D01*
X132122385Y-81650833D01*
X132122384Y-81650835D01*
X132007365Y-81822973D01*
X131860973Y-81969365D01*
X131688835Y-82084384D01*
X131688834Y-82084385D01*
X131688833Y-82084385D01*
X131497564Y-82163611D01*
X131294516Y-82204000D01*
X131087484Y-82204000D01*
X130884436Y-82163611D01*
X130693167Y-82084385D01*
X130693166Y-82084385D01*
X130693165Y-82084384D01*
X130521027Y-81969365D01*
X130374635Y-81822973D01*
X130259616Y-81650835D01*
X130259615Y-81650833D01*
X130180389Y-81459564D01*
X130140000Y-81256516D01*
X130140000Y-81049484D01*
X130180389Y-80846436D01*
X130259615Y-80655167D01*
X130374635Y-80483027D01*
X130521027Y-80336635D01*
X130693165Y-80221616D01*
X130693167Y-80221615D01*
X130884436Y-80142389D01*
X131087484Y-80102000D01*
X131294516Y-80102000D01*
X131497564Y-80142389D01*
X131497564Y-80142389D01*
G37*
G36*
X92237000Y-81750000D02*
G01*
X90135000Y-81750000D01*
X90135000Y-80048000D01*
X92237000Y-80048000D01*
X92237000Y-81750000D01*
X92237000Y-81750000D01*
G37*
G36*
X96237000Y-81750000D02*
G01*
X94135000Y-81750000D01*
X94135000Y-80048000D01*
X96237000Y-80048000D01*
X96237000Y-81750000D01*
X96237000Y-81750000D01*
G37*
G36*
X131497564Y-77602389D02*
G01*
X131688833Y-77681615D01*
X131688835Y-77681616D01*
X131860973Y-77796635D01*
X132007365Y-77943027D01*
X132122385Y-78115167D01*
X132201611Y-78306436D01*
X132242000Y-78509484D01*
X132242000Y-78716516D01*
X132201611Y-78919564D01*
X132122385Y-79110833D01*
X132122384Y-79110835D01*
X132007365Y-79282973D01*
X131860973Y-79429365D01*
X131688835Y-79544384D01*
X131688834Y-79544385D01*
X131688833Y-79544385D01*
X131497564Y-79623611D01*
X131294516Y-79664000D01*
X131087484Y-79664000D01*
X130884436Y-79623611D01*
X130693167Y-79544385D01*
X130693166Y-79544385D01*
X130693165Y-79544384D01*
X130521027Y-79429365D01*
X130374635Y-79282973D01*
X130259616Y-79110835D01*
X130259615Y-79110833D01*
X130180389Y-78919564D01*
X130140000Y-78716516D01*
X130140000Y-78509484D01*
X130180389Y-78306436D01*
X130259615Y-78115167D01*
X130374635Y-77943027D01*
X130521027Y-77796635D01*
X130693165Y-77681616D01*
X130693167Y-77681615D01*
X130884436Y-77602389D01*
X131087484Y-77562000D01*
X131294516Y-77562000D01*
X131497564Y-77602389D01*
X131497564Y-77602389D01*
G37*
G36*
X89252000Y-78829000D02*
G01*
X87150000Y-78829000D01*
X87150000Y-77127000D01*
X89252000Y-77127000D01*
X89252000Y-78829000D01*
X89252000Y-78829000D01*
G37*
G36*
X85252000Y-78829000D02*
G01*
X83150000Y-78829000D01*
X83150000Y-77127000D01*
X85252000Y-77127000D01*
X85252000Y-78829000D01*
X85252000Y-78829000D01*
G37*
G36*
X132242000Y-77124000D02*
G01*
X130140000Y-77124000D01*
X130140000Y-75022000D01*
X132242000Y-75022000D01*
X132242000Y-77124000D01*
X132242000Y-77124000D01*
G37*
G36*
X119564338Y-73998739D02*
G01*
X119795440Y-74068843D01*
X120008425Y-74182686D01*
X120195107Y-74335893D01*
X120348314Y-74522575D01*
X120462157Y-74735560D01*
X120532261Y-74966662D01*
X120555932Y-75207000D01*
X120532261Y-75447338D01*
X120462157Y-75678440D01*
X120348314Y-75891425D01*
X120195107Y-76078107D01*
X120008425Y-76231314D01*
X119795440Y-76345157D01*
X119564338Y-76415261D01*
X119384229Y-76433000D01*
X118613771Y-76433000D01*
X118433662Y-76415261D01*
X118202560Y-76345157D01*
X117989575Y-76231314D01*
X117802893Y-76078107D01*
X117649686Y-75891425D01*
X117535843Y-75678440D01*
X117465739Y-75447338D01*
X117442068Y-75207000D01*
X117465739Y-74966662D01*
X117535843Y-74735560D01*
X117649686Y-74522575D01*
X117802893Y-74335893D01*
X117989575Y-74182686D01*
X118202560Y-74068843D01*
X118433662Y-73998739D01*
X118613771Y-73981000D01*
X119384229Y-73981000D01*
X119564338Y-73998739D01*
X119564338Y-73998739D01*
G37*
G36*
X120550000Y-72473000D02*
G01*
X117448000Y-72473000D01*
X117448000Y-70021000D01*
X120550000Y-70021000D01*
X120550000Y-72473000D01*
X120550000Y-72473000D01*
G37*
M02*
